<?xml version="1.0" encoding="UTF-8" standalone="no"?>
<svg width="434px" height="434px" viewBox="0 0 434 434" version="1.1" xmlns="http://www.w3.org/2000/svg" xmlns:xlink="http://www.w3.org/1999/xlink" xmlns:sketch="http://www.bohemiancoding.com/sketch/ns">
    <!-- Generator: Sketch 3.0.3 (7891) - http://www.bohemiancoding.com/sketch -->
    <title>multyspiral</title>
    <desc>Created with Sketch.</desc>
    <defs></defs>
    <g id="Page-1" stroke="none" stroke-width="1" fill="none" fill-rule="evenodd" sketch:type="MSPage">
        <path d="M219.092289,216.592212 C216.097641,216.862116 213.064923,217 210,217 C154.771525,217 110,172.228475 110,117 C110,61.771525 154.771525,17 210,17 C228.36895,17 245.581129,21.9527279 260.374004,30.5956513 C250.259574,26.9732327 239.360223,25 228,25 C174.980664,25 132,67.980664 132,121 C132,171.01589 170.249042,212.098238 219.092294,216.592212 L219.092289,216.592212 Z" id="Oval-1" fill="#4990E2" sketch:type="MSShapeGroup"></path>
        <path d="M214.907711,217.407788 C217.902359,217.137884 220.935077,217 224,217 C279.228475,217 324,261.771525 324,317 C324,372.228475 279.228475,417 224,417 C205.63105,417 188.418871,412.047272 173.625996,403.404349 C183.740426,407.026767 194.639777,409 206,409 C259.019336,409 302,366.019336 302,313 C302,262.98411 263.750958,221.901762 214.907706,217.407788 L214.907711,217.407788 Z" id="Oval-1" fill="#4990E2" sketch:type="MSShapeGroup"></path>
        <path d="M216.592212,214.907711 C216.862116,217.902359 217,220.935077 217,224 C217,279.228475 172.228475,324 117,324 C61.771525,324 17,279.228475 17,224 C17,205.63105 21.9527279,188.418871 30.5956513,173.625996 C26.9732327,183.740426 25,194.639777 25,206 C25,259.019336 67.980664,302 121,302 C171.01589,302 212.098238,263.750958 216.592212,214.907706 L216.592212,214.907711 Z" id="Oval-1" fill="#4990E2" sketch:type="MSShapeGroup"></path>
        <path d="M217.407788,219.092289 C217.137884,216.097641 217,213.064923 217,210 C217,154.771525 261.771525,110 317,110 C372.228475,110 417,154.771525 417,210 C417,228.36895 412.047272,245.581129 403.404349,260.374004 C407.026767,250.259574 409,239.360223 409,228 C409,174.980664 366.019336,132 313,132 C262.98411,132 221.901762,170.249042 217.407788,219.092294 L217.407788,219.092289 Z" id="Oval-1" fill="#4990E2" sketch:type="MSShapeGroup"></path>
        <path d="M218.191122,215.232178 C216.264437,217.540566 214.21748,219.78252 212.050253,221.949747 C172.997823,261.002177 109.681325,261.002177 70.6288963,221.949747 C31.5764671,182.897318 31.5764671,119.58082 70.6288963,80.5283912 C83.6177057,67.5395819 99.2906614,58.870841 115.862273,54.5221686 C106.148854,59.1127141 97.0465636,65.4244324 89.0136726,73.4573234 C51.5233406,110.947655 51.5233406,171.731493 89.0136726,209.221825 C124.380248,244.588401 180.476011,246.591851 218.191126,215.232175 L218.191122,215.232178 Z" id="Oval-1" fill="#4990E2" sketch:type="MSShapeGroup"></path>
        <path d="M215.808878,218.767822 C217.735563,216.459434 219.78252,214.21748 221.949747,212.050253 C261.002177,172.997823 324.318675,172.997823 363.371104,212.050253 C402.423533,251.102682 402.423533,314.41918 363.371104,353.471609 C350.382294,366.460418 334.709339,375.129159 318.137727,379.477831 C327.851146,374.887286 336.953436,368.575568 344.986327,360.542677 C382.476659,323.052345 382.476659,262.268507 344.986327,224.778175 C309.619752,189.411599 253.523989,187.408149 215.808874,218.767825 L215.808878,218.767822 Z" id="Oval-1" fill="#4990E2" sketch:type="MSShapeGroup"></path>
        <path d="M218.191122,215.232178 C216.264437,217.540566 214.21748,219.78252 212.050253,221.949747 C172.997823,261.002177 109.681325,261.002177 70.6288963,221.949747 C31.5764671,182.897318 31.5764671,119.58082 70.6288963,80.5283912 C83.6177057,67.5395819 99.2906614,58.870841 115.862273,54.5221686 C106.148854,59.1127141 97.0465636,65.4244324 89.0136726,73.4573234 C51.5233406,110.947655 51.5233406,171.731493 89.0136726,209.221825 C124.380248,244.588401 180.476011,246.591851 218.191126,215.232175 L218.191122,215.232178 Z" id="Oval-1" fill="#4990E2" sketch:type="MSShapeGroup"></path>
        <path d="M215.808878,218.767822 C217.735563,216.459434 219.78252,214.21748 221.949747,212.050253 C261.002177,172.997823 324.318675,172.997823 363.371104,212.050253 C402.423533,251.102682 402.423533,314.41918 363.371104,353.471609 C350.382294,366.460418 334.709339,375.129159 318.137727,379.477831 C327.851146,374.887286 336.953436,368.575568 344.986327,360.542677 C382.476659,323.052345 382.476659,262.268507 344.986327,224.778175 C309.619752,189.411599 253.523989,187.408149 215.808874,218.767825 L215.808878,218.767822 Z" id="Oval-1" fill="#4990E2" sketch:type="MSShapeGroup"></path>
        <path d="M215.232178,215.808878 C217.540566,217.735563 219.78252,219.78252 221.949747,221.949747 C261.002177,261.002177 261.002177,324.318675 221.949747,363.371104 C182.897318,402.423533 119.58082,402.423533 80.5283912,363.371104 C67.5395819,350.382294 58.870841,334.709339 54.5221686,318.137727 C59.1127141,327.851146 65.4244324,336.953436 73.4573234,344.986327 C110.947655,382.476659 171.731493,382.476659 209.221825,344.986327 C244.588401,309.619752 246.591851,253.523989 215.232175,215.808874 L215.232178,215.808878 Z" id="Oval-1" fill="#4990E2" sketch:type="MSShapeGroup"></path>
        <path d="M218.767822,218.191122 C216.459434,216.264437 214.21748,214.21748 212.050253,212.050253 C172.997823,172.997823 172.997823,109.681325 212.050253,70.6288963 C251.102682,31.5764671 314.41918,31.5764671 353.471609,70.6288963 C366.460418,83.6177057 375.129159,99.2906614 379.477831,115.862273 C374.887286,106.148854 368.575568,97.0465636 360.542677,89.0136726 C323.052345,51.5233406 262.268507,51.5233406 224.778175,89.0136726 C189.411599,124.380248 187.408149,180.476011 218.767825,218.191126 L218.767822,218.191122 Z" id="Oval-1" fill="#4990E2" sketch:type="MSShapeGroup"></path>
        <path d="M215.232178,215.808878 C217.540566,217.735563 219.78252,219.78252 221.949747,221.949747 C261.002177,261.002177 261.002177,324.318675 221.949747,363.371104 C182.897318,402.423533 119.58082,402.423533 80.5283912,363.371104 C67.5395819,350.382294 58.870841,334.709339 54.5221686,318.137727 C59.1127141,327.851146 65.4244324,336.953436 73.4573234,344.986327 C110.947655,382.476659 171.731493,382.476659 209.221825,344.986327 C244.588401,309.619752 246.591851,253.523989 215.232175,215.808874 L215.232178,215.808878 Z" id="Oval-1" fill="#4990E2" sketch:type="MSShapeGroup"></path>
        <path d="M218.767822,218.191122 C216.459434,216.264437 214.21748,214.21748 212.050253,212.050253 C172.997823,172.997823 172.997823,109.681325 212.050253,70.6288963 C251.102682,31.5764671 314.41918,31.5764671 353.471609,70.6288963 C366.460418,83.6177057 375.129159,99.2906614 379.477831,115.862273 C374.887286,106.148854 368.575568,97.0465636 360.542677,89.0136726 C323.052345,51.5233406 262.268507,51.5233406 224.778175,89.0136726 C189.411599,124.380248 187.408149,180.476011 218.767825,218.191126 L218.767822,218.191122 Z" id="Oval-1" fill="#4990E2" sketch:type="MSShapeGroup"></path>
    </g>
</svg>