<?xml version="1.0" encoding="UTF-8" standalone="no"?>
<svg width="292px" height="277px" viewBox="0 0 292 277" version="1.1" xmlns="http://www.w3.org/2000/svg" xmlns:xlink="http://www.w3.org/1999/xlink" xmlns:sketch="http://www.bohemiancoding.com/sketch/ns">
    <!-- Generator: Sketch 3.0.3 (7891) - http://www.bohemiancoding.com/sketch -->
    <title>pentagon</title>
    <desc>Created with Sketch.</desc>
    <defs>

    </defs>
    <g id="Page-1-Copy-Copy" stroke="none" stroke-width="1" fill="none" fill-rule="evenodd" sketch:type="MSPage">
        <mask id="mask-2" sketch:name="hexagon 3" fill="white">
            <polygon id="path-1" points="145.5 1 290.536119 106.374908 235.137251 276.875092 55.862749 276.875092 0.463881265 106.374908 "></polygon>
        </mask>
        <g id="w3-bkp-2" sketch:type="MSLayerGroup" mask="url(#mask-2)" fill="#979797">
            <g transform="translate(-11.000000, -4.000000)" sketch:type="MSShapeGroup">
                <path d="M120.531158,27.6534578 L119.438553,28.4876333 L120.174448,29.6487079 L141.508432,63.3088642 L142.43453,64.7700346 L143.749774,63.6462875 L187.722431,26.075975 L189.158765,24.8487684 L187.637911,23.7280115 L157.012911,1.15965214 L156.10712,0.492151437 L155.212799,1.17494216 L120.531158,27.6534578 Z M155.233183,3.57472286 L185.858183,26.1430822 L185.773663,23.7951187 L141.801007,61.3654312 L144.042349,61.7028546 L122.708365,28.0426983 L122.351654,30.0379485 L157.033295,3.55943284 L155.233183,3.57472286 Z" id="Path-1"></path>
                <path d="M55.5039923,76.1802942 L54.9297803,76.5695725 L54.8545494,77.2592082 L50.9932213,112.655693 L50.8725647,113.761741 L51.8960134,114.198153 L92.6108571,131.559481 L93.5617269,131.964944 L94.2791459,131.220724 L113.466646,111.316427 L113.781754,110.989547 L113.862692,110.54279 L120.243552,75.3220865 L120.437693,74.2504781 L119.478868,73.7340565 L86.6390246,56.0465565 L85.8385673,55.6154312 L85.0860236,56.1256067 L55.5039923,76.1802942 Z M85.2164441,58.6878185 L118.056288,76.3753185 L117.291605,74.7872885 L110.910745,110.007992 L111.306792,109.234354 L92.1192916,129.138651 L93.7875804,128.799894 L53.0727366,111.438566 L53.9755287,112.981026 L57.8368569,77.5845418 L57.1874139,78.6634558 L86.7694452,58.6087683 L85.2164441,58.6878185 Z" id="Path-2"></path>
                <path d="M204.896603,64.8199443 L203.925496,65.0389256 L203.750043,66.0188329 L197.8477,98.9836767 L197.712946,99.7362845 L198.24278,100.287513 L223.588483,126.656654 L224.34392,127.442594 L225.324705,126.966728 L254.666501,112.7304 L255.43349,112.358265 L255.506246,111.508876 L257.588277,87.2022353 L257.622646,86.8009966 L257.451435,86.4364961 L249.681904,69.8954805 L249.498797,69.5056537 L249.136773,69.2723481 L233.080133,58.9246919 L232.55132,58.5839003 L231.937618,58.722288 L204.896603,64.8199443 Z M231.455024,61.4464019 L247.511664,71.7940581 L246.966533,71.1709257 L254.736065,87.7119414 L254.599223,86.9462022 L252.517191,111.252843 L253.356936,110.031319 L224.015139,124.267647 L225.751361,124.577721 L200.405658,98.2085807 L200.800738,99.5124171 L206.703082,66.5475733 L205.556522,67.746462 L232.597538,61.6488057 L231.455024,61.4464019 Z" id="Path-3"></path>
                <path d="M67.2147558,145.787172 L65.6481107,145.40817 L91.8257474,172.60913 L91.5284365,170.976692 L79.514374,198.929723 L80.221945,198.180242 L54.7436247,210.912641 L56.1624508,210.9544 L40.8725582,202.153572 L41.5629331,203.029047 L28.1679624,157.637575 L27.2151464,159.481261 L67.2147558,145.787172 Z M24.8839138,157.10843 L25.2906313,158.486672 L38.685602,203.878144 L38.8555559,204.454066 L39.3759769,204.753619 L54.6658695,213.554447 L55.3640687,213.956329 L56.0846957,213.596207 L81.563016,200.863809 L82.0538974,200.618498 L82.2705869,200.114328 L94.2846494,172.161297 L94.6778727,171.246388 L93.9873385,170.52886 L67.8097018,143.3279 L67.1470983,142.639394 L66.2430567,142.948897 L26.2434474,156.642986 L24.8839138,157.10843 Z" id="Path-4"></path>
                <path d="M155.243488,161.794177 L153.81055,162.263963 L207.607425,173.722947 L206.443598,171.990403 L197.242426,223.162278 L198.354822,221.972552 L160.696619,231.39052 L162.198756,231.868728 L127.310084,191.222244 L127.292316,193.196521 L155.243488,161.794177 Z M124.179696,192.181289 L125.033666,193.176194 L159.922338,233.822678 L160.525732,234.525653 L161.424475,234.300886 L199.082678,224.882917 L200.023456,224.647637 L200.195074,223.693191 L209.396246,172.521316 L209.653351,171.091437 L208.232418,170.788772 L154.435543,159.329787 L153.582495,159.148084 L153.002606,159.799573 L125.051434,191.201916 L124.179696,192.181289 Z" id="Path-5"></path>
                <path d="M93.1664166,203.368257 L91.2267126,204.333356 L130.808744,218.569684 L129.819859,217.259921 L131.730015,245.363437 L132.432164,243.989346 L107.127477,259.788174 L109.104123,260.137352 L84.582639,228.735008 L84.8324322,230.104585 L93.1664166,203.368257 Z M81.734498,229.962041 L82.2181423,230.581398 L106.739627,261.983742 L107.570769,263.048108 L108.716273,262.332919 L134.020961,246.534091 L134.784119,246.057618 L134.72311,245.160001 L132.812953,217.056485 L132.74648,216.078482 L131.824069,215.746722 L92.2420374,201.510394 L90.7683789,200.980368 L90.3023334,202.475493 L81.968349,229.211821 L81.734498,229.962041 Z" id="Path-6"></path>
                <path d="M257.266959,122.77005 L255.864655,123.087201 L294.302155,134.03056 L293.277396,132.152741 L281.513724,170.959382 L282.09195,170.163641 L256.418122,188.044501 L258.356768,188.235861 L222.696612,151.140158 L222.606802,153.305207 L257.266959,122.77005 Z M219.448139,152.089793 L220.533857,153.219217 L256.194013,190.314921 L257.081638,191.238278 L258.132659,190.506281 L283.806488,172.625421 L284.233688,172.327892 L284.384713,171.829681 L296.148385,133.02304 L296.59098,131.562984 L295.123626,131.145221 L256.686126,120.201861 L255.898388,119.977588 L255.283823,120.519012 L220.623666,151.054168 L219.448139,152.089793 Z" id="Path-7"></path>
                <path d="M118.980131,109.67848 L118.51312,110.168906 L118.572107,110.843545 L121.177576,140.642373 L121.250355,141.474746 L121.996387,141.851015 L151.558887,156.761172 L152.403144,157.186982 L153.151415,156.608904 L181.38579,134.796404 L181.880441,134.41426 L181.957352,133.79394 L186.103836,100.35058 L186.264874,99.0517392 L184.999841,98.7161611 L141.486169,87.1731924 L140.62774,86.9454751 L140.015287,87.5886361 L118.980131,109.67848 Z M140.716956,90.0729014 L184.230628,101.61587 L183.126632,99.9814509 L178.980148,133.42481 L179.55171,132.422346 L151.317335,154.234846 L152.909863,154.082578 L123.347363,139.172422 L124.166174,140.381064 L121.560705,110.582236 L121.152682,111.747301 L142.187838,89.6574577 L140.716956,90.0729014 Z" id="Path-8"></path>
                <path d="M150.091118,73.6986139 L148.642779,75.3562974 L150.71538,76.097867 L186.137255,88.7716952 L187.450265,89.2414858 L188.014374,87.9661505 L204.250702,51.2591192 L205.304953,48.8756735 L202.714465,49.1613847 L168.784777,52.9035722 L168.204046,52.9676225 L167.819633,53.4075982 L150.091118,73.6986139 Z M169.11366,55.8854903 L203.043348,52.1433028 L201.507111,50.0455683 L185.270782,86.7525995 L187.147902,85.9470548 L151.726027,73.2732267 L152.350289,75.6724799 L170.078804,55.3814643 L169.11366,55.8854903 Z" id="Path-9"></path>
                <path d="M136.345366,161.701325 L135.89535,159.29213 L109.873866,186.049942 L112.448899,187.064735 L111.642258,148.002235 L109.517241,149.396637 L136.345366,161.701325 Z M108.593509,145.67248 L108.642898,148.064172 L109.449538,187.126672 L109.5236,190.713205 L112.024572,188.141464 L138.046056,161.383652 L139.527479,159.860308 L137.596041,158.974456 L110.767916,146.669769 L108.593509,145.67248 Z" id="Path-10"></path>
                <path d="M117.1445,280.966221 L115.575091,283.164109 L118.270381,283.334889 L175.172725,286.940357 L177.910995,287.113861 L176.578948,284.715136 L150.559417,237.859668 L149.406879,235.7842 L148.027313,237.716221 L117.1445,280.966221 Z M147.936677,239.316114 L173.956208,286.171582 L175.362431,283.946361 L118.460088,280.340893 L119.585969,282.70956 L150.468781,239.45956 L147.936677,239.316114 Z" id="Path-11"></path>
                <path d="M74.5749882,223.356545 L73.3054793,222.03348 L76.6043074,252.699496 L78.3441147,251.059775 L48.3714585,246.026572 L49.6055945,247.277709 L44.9395789,216.957397 L43.2351445,218.669045 L74.5749882,223.356545 Z M41.664715,215.400785 L41.9744836,217.413697 L46.6404993,247.73401 L46.8054063,248.805595 L47.8746353,248.985147 L77.8472915,254.01835 L79.7987397,254.34605 L79.5870988,252.378629 L76.2882707,221.712613 L76.1643775,220.560899 L75.0187618,220.389549 L43.678918,215.702049 L41.664715,215.400785 Z" id="Path-12"></path>
                <path d="M47.8079277,128.545104 L48.3056496,127.089996 L22.2861184,149.138825 L24.586213,149.590268 L3.42605678,108.965268 L2.88499503,110.933749 L41.1213232,87.2735931 L38.8645683,86.3087758 L47.8079277,128.545104 Z M41.3574278,83.5995943 L39.5427393,84.7225006 L1.30641122,108.382657 L0.121831492,109.11566 L0.765349468,110.351138 L21.9255057,150.976138 L22.7929768,152.64158 L24.2256004,151.427582 L50.2451316,129.378754 L50.9283711,128.79978 L50.7428536,127.923646 L41.7994942,85.687318 L41.3574278,83.5995943 Z" id="Path-13"></path>
                <path d="M246.518479,190.676456 L245.601649,189.568752 L250.441493,214.527736 L251.454847,212.814209 L222.308363,222.187256 L224.172448,223.089552 L214.971276,198.499708 L214.946293,199.613534 L223.364262,179.863534 L221.428636,180.668644 L246.518479,190.676456 Z M221.179046,177.339236 L220.604488,178.687247 L212.18652,198.437247 L211.951278,198.989164 L212.161537,199.551073 L221.362709,224.140917 L221.864288,225.481372 L223.226793,225.043212 L252.373278,215.670166 L253.639919,215.262834 L253.386632,213.956639 L248.546789,188.997654 L248.390844,188.193452 L247.629958,187.88995 L222.540114,177.882138 L221.179046,177.339236 Z" id="Path-14"></path>
                <path d="M211.597902,228.466163 L210.363472,228.38147 L232.9123,240.514283 L232.155878,238.881245 L226.079706,267.443745 L227.360737,266.267453 L194.048237,270.433469 L195.423322,271.007324 L172.35301,241.015136 L171.687746,243.335303 L211.597902,228.466163 Z M168.736138,241.233526 L169.975115,242.844239 L193.045428,272.836426 L193.568777,273.516798 L194.420513,273.410281 L227.733013,269.244265 L228.791981,269.111832 L229.014044,268.067974 L235.090216,239.505474 L235.324244,238.405366 L234.333794,237.872436 L211.784966,225.739624 L211.186923,225.417835 L210.550535,225.654931 L170.640379,240.524072 L168.736138,241.233526 Z" id="Path-15"></path>
                <path d="M221.215267,135.706366 L221.036477,133.514161 L196.864602,159.902833 L199.162608,160.005321 L184.336436,140.601025 L184.495474,142.163604 L197.667349,114.866729 L195.389095,115.393866 L221.215267,135.706366 Z M195.776625,111.881941 L194.965464,113.562958 L181.793589,140.859833 L181.393005,141.689987 L181.952627,142.422413 L196.778799,161.82671 L197.866592,163.250399 L199.076805,161.929198 L223.24868,135.540527 L224.340984,134.348048 L223.069889,133.348321 L197.243717,113.035821 L195.776625,111.881941 Z" id="Path-16"></path>
                <path d="M80.2909191,146.830086 L78.8660759,148.027276 L80.3385674,149.16535 L97.8307549,162.684881 L101.530671,165.544508 L100.184553,161.066248 L93.4130686,138.538904 L92.7568713,136.35587 L91.0116223,137.822274 L80.2909191,146.830086 Z M90.5400564,139.402502 L97.3115408,161.929846 L99.6653388,160.311213 L82.1731513,146.791681 L82.2207996,149.126945 L92.9415027,140.119133 L90.5400564,139.402502 Z" id="Path-17"></path>
                <path d="M271.373684,211.585156 L269.218981,209.802769 L248.927965,270.92191 L251.806654,271.030238 L240.869154,227.342738 L240.145168,229.016796 L271.373684,211.585156 Z M237.680017,226.957103 L237.958971,228.071324 L248.896471,271.758824 L250.14951,276.763818 L251.77516,271.867153 L272.066175,210.748012 L273.282645,207.08385 L269.911472,208.965626 L238.682957,226.397266 L237.680017,226.957103 Z" id="Path-18"></path>
                <path d="M260.76329,111.034877 L260.713739,112.116608 L261.724878,112.504159 L302.61355,128.176034 L304.384103,128.854654 L304.63699,126.975444 L308.629178,97.3094283 L308.749762,96.4133659 L308.01373,95.8882709 L265.173886,65.3257709 L262.930412,63.7252479 L262.804306,66.4782362 L260.76329,111.034877 Z M263.431583,67.7679791 L306.271427,98.3304791 L305.655978,96.9093217 L301.663791,126.575337 L303.687231,125.374747 L262.79856,109.702872 L263.760147,111.172154 L265.801163,66.6155138 L263.431583,67.7679791 Z" id="Path-19"></path>
                <path d="M126.314642,59.5117316 L128.218287,57.4761095 L78.7397713,38.1225939 L78.8528649,40.8667701 L111.665365,24.8042701 L109.648626,24.095716 L126.314642,59.5117316 Z M111.714497,21.4400535 L110.346354,22.1097924 L77.5338539,38.1722924 L74.4680876,39.673058 L77.6469475,40.9164686 L127.125463,60.2699843 L130.63257,61.6417886 L129.029108,58.2343621 L112.363093,22.8183465 L111.714497,21.4400535 Z" id="Path-20"></path>
                <path d="M96.3054887,261.380835 L94.8588365,260.307527 L103.712352,290.147371 L105.216027,288.22214 L45.7296988,285.616671 L47.1273846,287.444914 L53.2055096,260.466398 L51.7508012,261.636694 L96.3054887,261.380835 Z M50.5409843,258.643592 L50.2788654,259.80704 L44.2007404,286.785555 L43.8065286,288.535314 L45.5984262,288.613798 L105.084754,291.219266 L107.186966,291.311342 L106.588429,289.294035 L97.7349135,259.454192 L97.4145429,258.374416 L96.2882613,258.380884 L51.7335738,258.636743 L50.5409843,258.643592 Z" id="Path-21"></path>
                <path d="M120.576501,111.894659 L120.677405,108.896357 L112.958655,108.636591 L112.857751,111.634893 L120.576501,111.894659 Z" id="Path-23"></path>
                <path d="M90.8099611,138.07631 L90.656258,139.119682 L91.5860654,139.617384 L109.262823,149.079298 L110.012248,149.480446 L110.741475,149.043658 L123.297139,141.52315 L121.755595,138.949506 L109.199931,146.470014 L110.678583,146.434374 L93.0018253,136.97246 L93.7779295,138.513533 L94.9722654,130.406111 L92.0042971,129.968889 L90.8099611,138.07631 Z" id="Path-24"></path>
                <path d="M92.1857364,170.972308 L92.0125561,171.282175 L91.996628,171.636795 L90.5972139,202.793045 L90.4503987,206.061707 L93.0227167,204.039608 L112.553967,188.686092 L111.204773,188.946198 L125.861023,193.245027 L126.705383,190.366302 L112.049133,186.067473 L111.307529,185.849953 L110.69994,186.327579 L91.1686896,201.681095 L93.5941923,202.927658 L94.9936064,171.771408 L94.804498,172.435895 L100.523248,162.203473 L97.9044864,160.739886 L92.1857364,170.972308 Z" id="Path-25"></path>
                <path d="M109.144319,184.437988 L111.314077,182.484431 L94.1480612,170.594069 L92.4398294,173.060228 L109.605845,184.95059 L114.825255,188.565913 L111.775602,182.997033 L99.4494306,160.488582 L96.8181475,161.929537 L109.144319,184.437988 Z" id="Path-26"></path>
                <path d="M181.864422,142.063172 L184.715656,141.130187 L182.101398,133.140929 L179.250164,134.073915 L181.864422,142.063172 Z" id="Path-28"></path>
                <path d="M222.7877,153.339679 L220.754922,151.948278 L220.949257,178.9932 L223.095698,177.628884 L208.738276,170.771462 L209.165722,171.077773 L198.631542,160.275038 L198.090434,162.724445 L222.7877,153.339679 Z M194.887241,160.732342 L196.483692,162.369493 L207.017872,173.172227 L207.204326,173.363435 L207.445317,173.478538 L221.802739,180.33596 L223.966409,181.369376 L223.94918,178.971644 L223.754844,151.926722 L223.739338,149.768774 L221.722066,150.535321 L197.0248,159.920087 L194.887241,160.732342 Z" id="Path-29"></path>
                <path d="M153.225329,153.667491 L152.800062,156.637196 L197.733656,163.071767 L198.158923,160.102062 L153.225329,153.667491 Z" id="Path-30"></path>
                <path d="M129.973735,60.8278203 L128.516941,61.5123206 L142.864598,63.3453284 L141.788693,62.6619447 L149.829708,75.315265 L149.855214,73.6674239 L140.337635,87.6674239 L142.364903,87.2336437 L120.118809,73.5285656 L120.598735,75.6090703 L129.973735,60.8278203 Z M117.251349,75.285631 L118.545253,76.0827626 L140.791347,89.7878407 L142.012343,90.5400556 L142.818615,89.3540605 L152.336193,75.3540605 L152.890616,74.5385239 L152.361698,73.7062194 L144.320682,61.0528991 L143.943096,60.4587302 L143.244777,60.3695153 L128.897121,58.5365075 L127.951125,58.4156503 L127.440327,59.2210079 L118.065327,74.0022579 L117.251349,75.285631 Z" id="Path-30"></path>
                <path d="M187.106164,26.2068865 L184.592368,26.3141102 L202.269126,51.1510242 L202.009742,50.5163005 L204.406226,65.6207927 L207.369165,65.1506917 L204.97268,50.0461995 L204.917497,49.6983894 L204.713296,49.4114758 L187.036539,24.5745617 L185.697078,22.6925382 L184.522742,24.6817853 L167.714149,53.1544416 L170.29757,54.6795428 L187.106164,26.2068865 Z" id="Path-31"></path>
                <path d="M215.249745,48.5098724 L214.386974,45.6366119 L203.771739,48.8241119 L204.634511,51.6973724 L215.249745,48.5098724 Z" id="Path-32"></path>
                <path d="M183.673774,99.6066968 L183.41368,101.397733 L185.221872,101.320914 L199.013864,100.734976 L202.473795,100.587985 L199.999811,98.1647369 L187.999811,86.4108306 L185.890159,84.3444429 L185.465766,87.2668531 L183.673774,99.6066968 Z M185.90058,88.5540131 L197.90058,100.307919 L198.886527,97.73768 L185.094535,98.3236175 L186.642632,100.037834 L188.434625,87.6979907 L185.90058,88.5540131 Z" id="Path-33"></path>
                <path d="M195.443974,113.976642 L198.076939,113.339102 L186.552525,99.1350004 L184.222866,101.025156 L195.74728,115.229257 L197.733808,117.677698 L198.380244,114.591718 L201.51501,99.626874 L198.57874,99.0117979 L195.443974,113.976642 Z" id="Path-34"></path>
                <path d="M226.740733,125.837204 L225.488569,126.918365 L256.478803,122.925201 L258.045064,122.723384 L257.762987,121.169571 L255.919237,111.013321 L254.485843,112.780648 L262.930179,112.54139 L262.845212,109.542594 L254.400876,109.781852 L252.655621,109.831301 L252.967482,111.549179 L254.811232,121.705429 L256.095416,119.949799 L225.105181,123.942963 L224.121756,124.06968 L223.853017,125.024124 L221.183095,134.506546 L224.070811,135.319626 L226.740733,125.837204 Z" id="Path-35"></path>
                <path d="M256.19662,120.030891 L258.848302,121.433953 L264.189122,111.340203 L261.53744,109.937141 L256.19662,120.030891 Z" id="Path-36"></path>
                <path d="M221.602539,151.704162 L221.90048,150.80783 L207.36923,170.275604 L209.773348,172.0701 L224.304598,152.602326 L224.602235,152.203577 L224.602539,151.705994 L224.613281,134.112244 L221.613282,134.110412 L221.602539,151.704162 Z" id="Path-37"></path>
                <path d="M54.2463223,112.862256 L51.6135333,113.48764 L79.8459552,148.429046 L81.393838,146.035559 L67.2649317,142.323645 L67.8797092,142.652744 L50.3797092,127.114658 L50.8498379,128.553662 L54.2463223,112.862256 Z M47.7322609,128.77589 L48.387869,129.357998 L65.887869,144.896084 L66.1559326,145.134095 L66.5026464,145.225183 L80.6315526,148.937097 L85.0516237,150.098328 L82.1794354,146.54361 L53.9470135,111.602204 L51.9772708,109.164383 L51.3142246,112.227588 L47.9177402,127.918994 L47.7322609,128.77589 Z" id="Path-38"></path>
                <path d="M74.1300828,223.264465 L73.8683091,223.101683 L83.0274888,230.199339 L85.7727423,232.326698 L85.4393624,228.869686 L82.5301827,198.702694 L79.544036,198.990665 L82.4532157,229.157658 L84.8650893,227.828005 L75.7059096,220.730349 L75.5834305,220.635437 L75.4441359,220.567566 L56.2253859,211.203308 L54.9113328,213.900207 L74.1300828,223.264465 Z" id="Path-39"></path>
                <path d="M82.6096956,199.886169 L79.728195,199.051331 L73.3463591,221.078675 L76.2278597,221.913513 L82.6096956,199.886169 Z" id="Path-40"></path>
                <path d="M95.7632509,261.176175 L95.9593458,261.257664 L96.1703543,261.28152 L107.598089,262.573512 L106.43155,261.766847 L117.913972,284.18384 L120.584075,282.81616 L109.101653,260.399168 L108.734772,259.682911 L107.935114,259.592503 L96.50738,258.300511 L96.9144835,258.405856 L78.9769835,250.951755 L77.8257509,253.722073 L95.7632509,261.176175 Z" id="Path-41"></path>
                <path d="M77.4006932,252.146645 L80.3336818,252.777183 L85.2916896,229.714683 L82.358701,229.084145 L77.4006932,252.146645 Z" id="Path-42"></path>
                <path d="M150.574527,239.597231 L150.737576,239.519064 L161.51199,233.529807 L159.851053,233.393951 L170.768045,242.05313 L172.632345,239.702729 L161.715353,231.043549 L160.930264,230.420829 L160.054416,230.907693 L149.280002,236.896951 L149.443051,236.818785 L133.241879,243.416441 L134.373355,246.194887 L150.574527,239.597231 Z" id="Path-43"></path>
                <path d="M130.046539,217.140784 L130.121231,217.529054 L130.37761,217.830056 L148.652024,239.285134 L149.008265,239.703378 L149.550368,239.792591 L171.512282,243.406849 L171.999437,240.446667 L150.037523,236.832409 L150.935866,237.339866 L132.661452,215.884788 L132.992523,216.57406 L128.249359,191.91781 L125.303375,192.484534 L130.046539,217.140784 Z" id="Path-44"></path>
                <path d="M210.850657,228.324134 L211.249652,228.43812 L211.650501,228.330838 L223.40343,225.18533 L225.869217,224.525397 L224.092767,222.69241 L204.638665,202.619168 L204.218946,205.011342 L214.701368,199.900014 L215.750228,199.38858 L215.512483,198.246148 L209.880647,171.183648 L206.943572,171.794868 L212.575408,198.857368 L213.386523,197.203501 L202.904101,202.314829 L201.044692,203.221495 L202.484382,204.707004 L221.938483,224.780246 L222.62782,222.287326 L210.87489,225.432834 L211.674733,225.439538 L198.913991,221.79403 L198.089915,224.678627 L210.850657,228.324134 Z" id="Path-45"></path>
                <path d="M257.623618,190.619464 L256.216023,189.799762 L267.347859,211.741168 L268.441385,209.582505 L251.795877,212.328599 L252.284201,215.288589 L268.929709,212.542495 L270.949375,212.2093 L270.023235,210.383832 L258.891399,188.442426 L258.452597,187.577524 L257.483804,187.622724 L247.20646,188.102216 L247.346274,191.098956 L257.623618,190.619464 Z" id="Path-46"></path>
                <path d="M232.785492,237.948111 L235.318104,237.787152 L224.04369,222.193402 L222.450605,224.523981 L239.769941,229.027888 L238.830414,226.858267 L232.785492,237.948111 Z M242.383669,226.607809 L240.524981,226.124456 L223.205645,221.62055 L219.168465,220.570678 L221.61256,223.951129 L232.886974,239.544879 L234.280928,241.47287 L235.419586,239.38392 L241.464508,228.294076 L242.383669,226.607809 Z" id="Path-47"></path>
                <path d="M227.800743,281.798076 L227.904227,283.236361 L229.345473,283.189642 L247.119887,282.61347 L248.18035,282.579095 L248.501104,281.56772 L252.366339,269.38022 L252.946856,267.549787 L251.030332,267.429694 L228.370176,266.009772 L226.657052,265.902425 L226.780235,267.614482 L227.800743,281.798076 Z M228.182559,269.0039 L250.842715,270.423822 L249.506708,268.473296 L245.641474,280.660796 L247.022691,279.615045 L229.248277,280.191217 L230.793007,281.582783 L229.7725,267.399189 L228.182559,269.0039 Z" id="Path-48"></path>
                <path d="M172.241139,279.178008 L174.317849,280.523384 L173.275857,240.579048 L170.276877,240.65728 L171.318869,280.601616 L171.37593,282.789021 L173.39558,281.946992 L194.717845,273.057343 L193.563405,270.28836 L172.241139,279.178008 Z" id="Path-49"></path>
            </g>
        </g>
    </g>
</svg>