<?xml version="1.0" encoding="UTF-8" standalone="no"?>
<svg width="292px" height="277px" viewBox="0 0 292 277" version="1.1" xmlns="http://www.w3.org/2000/svg" xmlns:xlink="http://www.w3.org/1999/xlink" xmlns:sketch="http://www.bohemiancoding.com/sketch/ns">
    <!-- Generator: Sketch 3.0.3 (7891) - http://www.bohemiancoding.com/sketch -->
    <title>pentagon</title>
    <desc>Created with Sketch.</desc>
    <defs>
        <polygon id="path-1" points="145.5 1 290.536119 106.374908 235.137251 276.875092 55.862749 276.875092 0.463881265 106.374908 "></polygon>
    </defs>
    <g id="Page-1-Copy-Copy" stroke="none" stroke-width="1" fill="none" fill-rule="evenodd" sketch:type="MSPage">
        <mask id="mask-2" sketch:name="hexagon 3" fill="white">
            <polygon id="path-1" points="145.5 1 290.536119 106.374908 235.137251 276.875092 55.862749 276.875092 0.463881265 106.374908 "></polygon>
        </mask>
        <use id="hexagon-3" sketch:type="MSShapeGroup" xlink:href="#path-1"></use>
        <g id="Group" sketch:type="MSLayerGroup" mask="url(#mask-2)" fill-opacity="0.443699049" fill="#F4BBBB">
            <g transform="translate(-11.000000, -4.000000)" id="Path-1" sketch:type="MSShapeGroup">
                <path d="M228,268.697077 L251,270.19873 L249.643956,268.135932 L245.720754,281.024943 L247.122685,279.918999 L229.081701,280.528336 L230.649599,282 L229.613786,267 L228,268.697077 Z"></path>
                <path d="M228.131083,281.589423 L228.233426,283 L229.658785,282.954181 L247.237264,282.389109 L248.286037,282.355395 L248.603256,281.363505 L252.425882,269.410796 L253,267.615625 L251.104602,267.497846 L228.694239,266.105279 L227,266 L227.121824,267.679075 L228.131083,281.589423 Z"></path>
                <path d="M242,226.776553 L240.158542,226.314063 L222.999755,222.004556 L219,221 L221.421438,224.234542 L232.591339,239.155226 L233.972371,241 L235.100474,239.001214 L241.08936,228.390036 L242,226.776553 Z"></path>
                <path d="M232.741056,238 L235.373202,237.836534 L223.655694,222 L222,224.366865 L240,228.940894 L239.023548,226.737495 L232.741056,238 Z"></path>
                <path d="M257.529953,190.963884 L256.107117,190.165215 L267.359487,211.543606 L268.464853,209.440334 L251.63911,212.115963 L252.132722,215 L268.958465,212.324371 L271,211.999726 L270.063832,210.221099 L258.811462,188.842708 L258.367908,188 L257.388626,188.044039 L247,188.511228 L247.141328,191.431072 L257.529953,190.963884 Z"></path>
                <path d="M210.862122,227.886521 L211.264287,228 L211.66832,227.893195 L223.514623,224.761668 L226,224.104667 L224.209436,222.279827 L204.600778,202.295802 L204.177724,204.677345 L214.743426,199.588734 L215.800619,199.079573 L215.560985,197.942219 L209.884406,171 L206.923996,171.608503 L212.600575,198.550722 L213.418134,196.904206 L202.852433,201.992817 L200.978251,202.895452 L202.429379,204.374359 L222.038038,224.358385 L222.732851,221.876544 L210.886548,225.008071 L211.692745,225.014745 L198.830623,221.38544 L198,224.257216 L210.862122,227.886521 Z"></path>
                <path d="M129.774037,216.983408 L129.849215,217.36799 L130.107263,217.666133 L148.500622,238.917433 L148.859181,239.331704 L149.404813,239.42007 L171.509674,243 L172,240.067933 L149.895139,236.488003 L150.799329,236.990641 L132.40597,215.739342 L132.739196,216.422067 L127.965159,192 L125,192.561341 L129.774037,216.983408 Z"></path>
                <path d="M150.600856,239.307841 L150.766428,239.228555 L161.707567,233.153509 L160.020928,233.015707 L171.106852,241.798918 L173,239.414851 L161.914077,230.63164 L161.116838,230 L160.227438,230.493838 L149.286299,236.568884 L149.451871,236.489598 L133,243.181756 L134.148984,246 L150.600856,239.307841 Z"></path>
                <path d="M77,252.361293 L79.9735039,253 L85,229.638707 L82.0264961,229 L77,252.361293 Z"></path>
                <path d="M96.0388851,261.153015 L96.2360884,261.233935 L96.4482895,261.257625 L107.940615,262.540594 L106.767483,261.739563 L118.314805,284 L121,282.641872 L109.452678,260.381435 L109.083723,259.67018 L108.279546,259.580404 L96.7872201,258.297434 L97.1966246,258.402044 L79.1577395,251 L78,253.750971 L96.0388851,261.153015 Z"></path>
                <path d="M83,199.839871 L79.8893491,199 L73,221.160129 L76.1106509,222 L83,199.839871 Z"></path>
                <path d="M74.3050564,223.105947 L74.0421071,222.946185 L83.2424183,229.912121 L86,232 L85.665123,228.607144 L82.7428789,199 L79.7433222,199.282627 L82.6655662,228.889772 L85.0882709,227.584795 L75.8879598,220.618859 L75.7649306,220.525709 L75.6250105,220.459097 L56.3199542,211.268624 L55,213.915474 L74.3050564,223.105947 Z"></path>
                <path d="M48,128.643154 L48.6499977,129.226201 L66.0002403,144.789361 L66.26601,145.027756 L66.6097567,145.118991 L80.6177539,148.836895 L85,150 L82.1523906,146.439546 L54.1615695,111.441755 L52.208683,109 L51.5513108,112.068148 L48.1838921,127.784876 L48,128.643154 Z"></path>
                <path d="M53.8648517,113 L51.2332621,113.615418 L79.4528224,148 L81,145.644655 L66.8775303,141.991894 L67.4920277,142.315749 L50,127.025277 L50.4699146,128.441349 L53.8648517,113 Z"></path>
                <path d="M221.857273,151.612434 L222.168275,150.71515 L207,170.203598 L209.50951,172 L224.677785,152.511552 L224.98847,152.112379 L224.988787,151.614268 L225,134.001834 L221.868486,134 L221.857273,151.612434 Z"></path>
                <path d="M256,119.657569 L258.654169,121 L264,111.342431 L261.345831,110 L256,119.657569 Z"></path>
                <path d="M226.591307,125.80342 L225.331557,126.851989 L256.50954,122.979197 L258.08529,122.783464 L257.801504,121.27649 L255.946584,111.426393 L254.504506,113.140445 L263,112.9084 L262.914519,110 L254.419024,110.232046 L252.663196,110.280004 L252.976946,111.946097 L254.831866,121.796194 L256.12383,120.093487 L224.945847,123.966279 L223.956464,124.089176 L223.686097,125.014849 L221,134.211429 L223.90521,135 L226.591307,125.80342 Z"></path>
                <path d="M195.680446,114.232699 L198.421191,113.583748 L186.425024,99.1254078 L184,101.049395 L195.996167,115.507735 L198.064014,118 L198.736912,114.858784 L202,99.6260853 L198.943534,99 L195.680446,114.232699 Z"></path>
                <path d="M185.818202,88.8146175 L197.999183,100 L199,97.5540803 L185,98.1116766 L186.571446,99.7429788 L188.390464,88 L185.818202,88.8146175 Z"></path>
                <path d="M183.259274,99.2145608 L183,101 L184.802489,100.923421 L198.550982,100.339315 L202,100.192783 L199.533819,97.7771069 L187.571666,86.0599304 L185.468668,84 L185.045614,86.9132779 L183.259274,99.2145608 Z"></path>
                <path d="M215,48.8444554 L214.173159,46 L204,49.1555446 L204.826841,52 L215,48.8444554 Z"></path>
                <path d="M187.071701,26.5202218 L184.599427,26.6276246 L201.984203,51.5060484 L201.729103,50.8702638 L204.086003,66 L207,65.5291134 L204.6431,50.3993772 L204.588828,50.0509858 L204.388001,49.7635926 L187.003225,24.8851689 L185.68589,23 L184.530952,24.9925717 L168,53.512814 L170.540749,55.0404641 L187.071701,26.5202218 Z"></path>
                <path d="M117,75.3297951 L118.307001,76.1486536 L140.778265,90.2272824 L142.011619,91 L142.826052,89.7816789 L152.439964,75.4000898 L153,74.5623247 L152.465728,73.7073345 L144.343323,60.7091306 L143.961915,60.0987668 L143.256528,60.0071203 L128.763648,58.1241514 L127.808077,58 L127.292109,58.8273087 L117.822218,74.0114419 L117,75.3297951 Z"></path>
                <path d="M129.942284,61 L128.472577,61.688591 L142.947416,63.532553 L141.861974,62.8450853 L149.974269,75.5740233 L150,73.9163345 L140.398054,88 L142.443292,87.5636275 L120,73.7766463 L120.48418,75.8695843 L129.942284,61 Z"></path>
                <path d="M153.421902,154 L153,156.842042 L197.578098,163 L198,160.157958 L153.421902,154 Z"></path>
                <path d="M195,160.755195 L196.592105,162.361229 L207.097605,172.958647 L207.283552,173.14622 L207.523887,173.259135 L221.842221,179.986225 L224,181 L223.982818,178.647839 L223.789011,152.116934 L223.773547,150 L221.761767,150.751978 L197.13174,159.958377 L195,160.755195 Z"></path>
                <path d="M222.692066,153.38909 L220.659716,152 L220.854011,179 L223,177.63795 L208.645601,170.791919 L209.072956,171.09772 L198.540994,160.312929 L198,162.758267 L222.692066,153.38909 Z"></path>
                <path d="M181.869924,142 L185,141.058884 L182.130076,133 L179,133.941116 L181.869924,142 Z"></path>
                <path d="M109.163098,184.736424 L111.392425,182.71867 L93.7551299,170.43757 L92,172.984772 L109.637295,185.265872 L115,189 L111.866621,183.248118 L99.2020442,160 L96.4985213,161.488306 L109.163098,184.736424 Z"></path>
                <path d="M91.7709977,171.159763 L91.5942587,171.467431 L91.5780033,171.819533 L90.1498322,202.754548 L90,206 L92.6251774,203.992259 L112.557782,188.747766 L111.180863,189.006025 L126.138289,193.274328 L127,190.416044 L112.042574,186.147741 L111.28573,185.931766 L110.665655,186.406 L90.7330513,201.650494 L93.2083965,202.888205 L94.6365676,171.953189 L94.4435731,172.612958 L100.27984,162.453195 L97.6072642,161 L91.7709977,171.159763 Z"></path>
                <path d="M91.1506853,137.89486 L91,138.910877 L91.9115512,139.39553 L109.241238,148.60937 L109.975948,149 L110.690858,148.574664 L123,141.25133 L121.488723,138.745162 L109.179581,146.068496 L110.629201,146.033791 L93.2995137,136.819951 L94.0603796,138.32062 L95.2312656,130.42576 L92.3215713,130 L91.1506853,137.89486 Z"></path>
                <path d="M120.896768,112 L121,109.23919 L113.103232,109 L113,111.76081 L120.896768,112 Z"></path>
                <path d="M50.6940325,258.269691 L50.433487,259.435367 L44.3918456,286.465546 L44,288.218655 L45.7811419,288.29729 L104.910406,290.907748 L107,291 L106.405056,288.97883 L97.6046826,259.081843 L97.2862351,258 L96.1667139,258.00648 L51.8794635,258.26283 L50.6940325,258.269691 Z"></path>
                <path d="M96.1623096,261.079068 L94.7274844,260 L103.508618,290 L105,288.064436 L46,285.444983 L47.3862591,287.283038 L53.4146927,260.159724 L51.9718772,261.336301 L96.1623096,261.079068 Z"></path>
                <path d="M111.800497,21 L110.412001,21.6830375 L77.1113734,38.0644822 L74,39.5950477 L77.2261494,40.8631481 L127.440721,60.6009564 L131,62 L129.372685,58.524914 L112.458741,22.405661 L111.800497,21 Z"></path>
                <path d="M126.114765,60 L128,57.9308119 L79,38.2581709 L79.1119998,41.0475966 L111.607164,24.7202376 L109.60993,24 L126.114765,60 Z"></path>
                <path d="M263.626138,68.1532374 L306,98.7362161 L305.391246,97.3141064 L301.442483,127 L303.443914,125.798605 L263,110.116229 L263.951128,111.586496 L265.969943,67 L263.626138,68.1532374 Z"></path>
                <path d="M261.049514,111.215629 L261,112.295211 L262.010381,112.681992 L302.86839,128.322728 L304.637615,129 L304.890313,127.124523 L308.879506,97.5174515 L309,96.6231696 L308.26452,96.0991179 L265.456802,65.597343 L263.215011,64 L263.088999,66.7475183 L261.049514,111.215629 Z"></path>
                <path d="M238,226.964529 L238.274232,228.083868 L249.026599,271.972019 L250.258428,277 L251.856561,272.080845 L271.804121,210.680992 L273,207 L269.685889,208.890419 L238.985963,226.402121 L238,226.964529 Z"></path>
                <path d="M271,211.775765 L268.861064,210 L248.718529,270.892074 L251.576152,271 L240.718688,227.474806 L240,229.142644 L271,211.775765 Z"></path>
                <path d="M90.6098032,139 L97.5778693,162 L100,160.347406 L82,146.544215 L82.0490316,148.928476 L93.0809655,139.731667 L90.6098032,139 Z"></path>
                <path d="M80.445929,146.76537 L79,147.995838 L80.4942824,149.165547 L98.2453301,163.060883 L102,166 L100.633961,161.397257 L93.7622681,138.243716 L93.09636,136 L91.3252837,137.507165 L80.445929,146.76537 Z"></path>
                <path d="M195.401042,112 L194.588899,113.66896 L181.401069,140.770038 L181,141.594238 L181.5603,142.32141 L196.40443,161.586522 L197.493541,163 L198.705219,161.688276 L222.906373,135.488886 L224,134.304961 L222.727366,133.312405 L196.869912,113.145604 L195.401042,112 Z"></path>
                <path d="M221,135.775652 L220.820622,133.590177 L196.569328,159.897826 L198.874885,160 L184,140.655281 L184.15956,142.213064 L197.374713,115 L195.088974,115.525518 L221,135.775652 Z"></path>
                <path d="M169,241.111966 L170.228035,242.752852 L193.09459,273.306883 L193.613317,274 L194.457531,273.891488 L227.475814,269.64743 L228.52543,269.512516 L228.745531,268.449103 L234.768038,239.351542 L235,238.230826 L234.018297,237.687913 L211.668621,225.327816 L211.075859,225 L210.445092,225.241537 L170.887423,240.389221 L169,241.111966 Z"></path>
                <path d="M211.763778,228.085436 L210.533874,228 L233,240.239308 L232.246353,238.591936 L226.192466,267.405142 L227.468799,266.218525 L194.278479,270.421108 L195.648521,271 L172.662824,240.744558 L172,243.08509 L211.763778,228.085436 Z"></path>
                <path d="M221.296687,177 L220.717838,178.344031 L212.236998,198.03572 L212,198.586008 L212.211829,199.146258 L221.481721,223.663502 L221.987047,225 L223.359728,224.563134 L252.723898,215.21776 L254,214.811631 L253.744822,213.509292 L248.868831,188.623998 L248.711721,187.822169 L247.945153,187.519564 L222.667921,177.541299 L221.296687,177 Z"></path>
                <path d="M246.132394,190.756384 L245.228335,189.654471 L250.000761,214.482952 L251,212.778384 L222.259519,222.102422 L224.097637,223 L215.024635,198.53873 L215,199.646732 L223.300709,180 L221.392046,180.800899 L246.132394,190.756384 Z"></path>
                <path d="M41.3926126,84 L39.5710142,85.1222234 L1.18909036,108.767991 L0,109.500549 L0.645968355,110.735276 L21.8866979,151.335571 L22.7574721,153 L24.1955509,151.78674 L50.3141589,129.75132 L51,129.172698 L50.8137761,128.297097 L41.8363623,86.086454 L41.3926126,84 Z"></path>
                <path d="M47.5068876,128.715886 L48,127.244257 L22.2214436,149.543431 L24.5002364,150 L3.53605082,108.913737 L3,110.904569 L40.8822098,86.975772 L38.6463554,86 L47.5068876,128.715886 Z"></path>
                <path d="M42,215 L42.3086799,217.015742 L46.9582965,247.378667 L47.122624,248.451758 L48.1880951,248.631563 L78.0554103,253.67184 L80,254 L79.7891029,252.029814 L76.5018687,221.3207 L76.378411,220.167366 L75.2368216,219.995776 L44.007124,215.301688 L42,215 Z"></path>
                <path d="M74.242572,223.445322 L72.9770034,222.112711 L76.2655927,253 L78,251.348447 L48.120372,246.278927 L49.3506776,247.539092 L44.6991442,217 L43,218.723999 L74.242572,223.445322 Z"></path>
                <path d="M147.527177,239 L173.591363,286 L175,283.767915 L118,280.151325 L119.127813,282.527299 L150.063627,239.143889 L147.527177,239 Z"></path>
                <path d="M117.560952,280.891843 L116,283.075615 L118.680766,283.245298 L175.276485,286.827611 L178,287 L176.675131,284.616681 L150.795809,238.062138 L149.649482,236 L148.277349,237.919613 L117.560952,280.891843 Z"></path>
                <path d="M109,146 L109.049494,148.389529 L109.857856,187.416709 L109.932076,191 L112.438386,188.430584 L138.515414,161.696966 L140,160.175 L138.064438,159.289949 L111.179048,146.996387 L109,146 Z"></path>
                <path d="M136,161.677172 L135.563876,159.271831 L110.345617,185.986831 L112.841165,187 L112.059423,148 L110,149.392172 L136,161.677172 Z"></path>
                <path d="M169.280117,55.886532 L203,52.1144771 L201.473262,50 L185.337331,87 L187.202843,86.188026 L152,73.4130446 L152.620402,75.8314469 L170.239293,55.3784832 L169.280117,55.886532 Z"></path>
                <path d="M150.431413,73.5979842 L149,75.2406451 L151.04838,75.9754943 L186.056303,88.5344668 L187.353968,89 L187.911485,87.7362223 L203.95807,51.3618459 L205,49 L202.439786,49.2831219 L168.906612,52.9913961 L168.332667,53.054866 L167.952747,53.4908545 L150.431413,73.5979842 Z"></path>
                <path d="M140.540099,90.4117292 L184,101.851492 L182.897368,100.231686 L178.756008,133.376027 L179.326863,132.382526 L151.127378,154 L152.717939,153.849093 L123.19197,139.072249 L124.009768,140.270085 L121.407519,110.737689 L121,111.892338 L142.009163,90 L140.540099,90.4117292 Z"></path>
                <path d="M119.461829,109.654843 L119,110.143584 L119.058333,110.815903 L121.634892,140.512276 L121.706863,141.341787 L122.444617,141.716762 L151.679101,156.575654 L152.51399,157 L153.253959,156.42391 L181.175054,134.686406 L181.664216,134.305577 L181.740273,133.687389 L185.84075,100.359015 L186,99.06464 L184.749003,98.7302157 L141.718146,87.2269343 L140.869243,87 L140.263585,87.6409496 L119.461829,109.654843 Z"></path>
                <path d="M219,151.99473 L220.097781,153.120023 L256.154169,190.080021 L257.051657,191 L258.114356,190.270681 L284.073455,172.455234 L284.505402,172.158793 L284.658106,171.662404 L296.552487,132.997728 L297,131.543014 L295.516342,131.126779 L256.65175,120.223453 L255.855259,120 L255.233865,120.539443 L220.188589,150.962894 L219,151.99473 Z"></path>
                <path d="M257.323997,123 L255.935294,123.314894 L294,134.180388 L292.98518,132.31593 L281.3356,170.846449 L281.908218,170.05637 L256.483393,187.810002 L258.403237,188 L223.088939,151.168245 L223,153.317889 L257.323997,123 Z"></path>
                <path d="M82,229.950042 L82.4831919,230.568724 L106.981739,261.936796 L107.812105,263 L108.956537,262.285592 L134.237555,246.504007 L135,246.028053 L134.939047,245.131416 L133.030678,217.058571 L132.964266,216.081636 L132.042718,215.750238 L92.4977108,201.529447 L91.0254308,201 L90.5598212,202.493493 L82.2336322,229.200642 L82,229.950042 Z"></path>
                <path d="M93.4313804,203 L91.5261141,203.969025 L130.405402,218.263258 L129.434074,216.948168 L131.310317,245.165993 L132,243.786313 L107.144575,259.649402 L109.086127,260 L85,228.469929 L85.2453584,229.845077 L93.4313804,203 Z"></path>
                <path d="M124,192.305977 L124.859229,193.309097 L159.962744,234.29122 L160.569854,235 L161.474131,234.773377 L199.364233,225.277639 L200.310804,225.040416 L200.483479,224.078089 L209.741311,172.483661 L210,171.041975 L208.570317,170.736811 L154.442162,159.183204 L153.583861,159 L153.000401,159.656868 L124.877107,191.318517 L124,192.305977 Z"></path>
                <path d="M155.189527,162 L153.74437,162.469285 L208,173.916079 L206.826248,172.185378 L197.546613,223.302812 L198.668495,222.114352 L160.68916,231.522301 L162.204106,232 L127.01792,191.396758 L127,193.368936 L155.189527,162 Z"></path>
                <path d="M25,157.404735 L25.4079182,158.776852 L38.8424327,203.966603 L39.0128883,204.539965 L39.5348457,204.838187 L54.869876,213.599904 L55.5701364,214 L56.2928907,213.641478 L81.8464265,200.965663 L82.338757,200.721443 L82.5560863,200.219513 L94.6056159,172.390707 L95,171.479863 L94.3074273,170.765524 L68.0525107,143.685446 L67.387951,143 L66.4812407,143.308128 L26.3635471,156.94136 L25,157.404735 Z"></path>
                <path d="M67.2406814,145.381626 L65.6645944,145 L92,172.389269 L91.7008972,170.74553 L79.6144277,198.892077 L80.3262631,198.137408 L54.6943885,210.957951 L56.1217657,211 L40.7397231,202.138245 L41.4342588,203.01978 L27.9585585,157.314068 L27,159.170517 L67.2406814,145.381626 Z"></path>
                <path d="M231.432033,61 L247.686563,71.4900389 L247.134713,70.8583323 L255,87.6269506 L254.861472,86.850675 L252.753781,111.491773 L253.603874,110.253441 L223.900456,124.685659 L225.658075,125 L200,98.2680227 L200.399949,99.5897997 L206.375036,66.1713631 L205.214346,67.3867483 L232.588628,61.2051889 L231.432033,61 Z"></path>
                <path d="M205.194485,65.1582781 L204.221914,65.3745286 L204.046197,66.3422162 L198.134957,98.8959758 L198,99.6391983 L198.530633,100.183553 L223.914539,126.22386 L224.671114,127 L225.653377,126.530068 L255.0394,112.471272 L255.807544,112.103778 L255.88041,111.264981 L257.965579,87.2614535 L258,86.8652184 L257.828531,86.5052634 L250.047289,70.1705205 L249.863907,69.7855549 L249.501337,69.5551588 L233.420494,59.3365418 L232.890885,59 L232.276258,59.1366619 L205.194485,65.1582781 Z"></path>
                <path d="M85.1518438,59.0784563 L118,76.6330722 L117.235123,75.0569729 L110.852649,110.013067 L111.248795,109.245242 L92.0564385,129 L93.7251495,128.663788 L53,111.432893 L53.9030207,112.963766 L57.7653262,77.8332108 L57.1157188,78.904019 L86.7052379,59 L85.1518438,59.0784563 Z"></path>
                <path d="M55.5938032,76.4707211 L55.0242559,76.8582174 L54.9496361,77.5446961 L51.1196764,112.779142 L51,113.880128 L52.0151345,114.314542 L92.3992221,131.596393 L93.3423672,132 L94.0539581,131.259187 L113.085584,111.446008 L113.398132,111.120625 L113.478413,110.675912 L119.807436,75.6164421 L120,74.5497394 L119.048965,74.0356819 L86.4759031,56.4291518 L85.6819484,56 L84.9355182,56.50784 L55.5938032,76.4707211 Z"></path>
                <path d="M155.137031,4.01525231 L186,26.5279426 L185.914824,24.1857708 L141.600482,61.663409 L143.85924,62 L122.359482,28.4228729 L122,30.4132014 L156.951131,4 L155.137031,4.01525231 Z"></path>
                <path d="M120.09699,27.4664445 L119,28.3099914 L119.738848,29.4841099 L141.158446,63.5224143 L142.08826,65 L143.408783,63.8636284 L187.557902,25.8712398 L189,24.6302464 L187.473043,23.4968986 L156.725144,0.674999601 L155.815719,0 L154.917809,0.690461395 L120.09699,27.4664445 Z"></path>
            </g>
        </g>
    </g>
</svg>