<svg xmlns="http://www.w3.org/2000/svg">
  <symbol id="pacific" viewBox="0 0 200 200">
    <g>
      <path d="M110 10h-20v76.567l-.605-.605-62.933 62.933 14.142 14.142 49.395-49.395v76.358h20v-76.358l49.395 49.395 14.142-14.142-62.933-62.933-.605.605v-76.567z"/>
      <path d="M99.5 0c-54.965 0-99.5 44.784-99.5 100s44.535 100 99.5 100 99.5-44.784 99.5-100-44.535-100-99.5-100zm0 20c43.894 0 79.5 35.805 79.5 80s-35.606 80-79.5 80-79.5-35.805-79.5-80 35.606-80 79.5-80z"/>
    </g>
    <g style="font: bold 20px/1 Arial, sans-serif; fill: orangered">
      <text y="50%" x="50%" dy=".5em" text-anchor="middle">Shape without fill</text>
      <text y="62%" x="50%" dy=".5em" text-anchor="middle">(external)</text>
    </g>
  </symbol>

  <symbol id="pacific-currentcolor" viewBox="0 0 200 200">
    <g fill="currentColor">
      <path d="M110 10h-20v76.567l-.605-.605-62.933 62.933 14.142 14.142 49.395-49.395v76.358h20v-76.358l49.395 49.395 14.142-14.142-62.933-62.933-.605.605v-76.567z"/>
      <path d="M99.5 0c-54.965 0-99.5 44.784-99.5 100s44.535 100 99.5 100 99.5-44.784 99.5-100-44.535-100-99.5-100zm0 20c43.894 0 79.5 35.805 79.5 80s-35.606 80-79.5 80-79.5-35.805-79.5-80 35.606-80 79.5-80z"/>
    </g>
    <g style="font: bold 20px/1 Arial, sans-serif; fill: orangered">
      <text y="50%" x="50%" dy=".5em" text-anchor="middle">Shape with currentColor</text>
      <text y="62%" x="50%" dy=".5em" text-anchor="middle">(external)</text>
    </g>
  </symbol>

  <symbol id="pacific-colored-group" viewBox="0 0 200 200">
    <g fill="currentColor" class="colored-group">
      <path d="M110 10h-20v76.567l-.605-.605-62.933 62.933 14.142 14.142 49.395-49.395v76.358h20v-76.358l49.395 49.395 14.142-14.142-62.933-62.933-.605.605v-76.567z"/>
      <path d="M99.5 0c-54.965 0-99.5 44.784-99.5 100s44.535 100 99.5 100 99.5-44.784 99.5-100-44.535-100-99.5-100zm0 20c43.894 0 79.5 35.805 79.5 80s-35.606 80-79.5 80-79.5-35.805-79.5-80 35.606-80 79.5-80z"/>
    </g>
    <g style="font: bold 20px/1 Arial, sans-serif; fill: orangered">
      <text y="50%" x="50%" dy=".5em" text-anchor="middle">Group has class</text>
      <text y="62%" x="50%" dy=".5em" text-anchor="middle">(external)</text>
    </g>
  </symbol>
</svg>
