<?xml version="1.0" encoding="UTF-8" standalone="no"?>
<svg width="240px" height="53px" viewBox="0 0 240 53" version="1.1" xmlns="http://www.w3.org/2000/svg" xmlns:xlink="http://www.w3.org/1999/xlink" xmlns:sketch="http://www.bohemiancoding.com/sketch/ns">
    <title>hello-logo</title>
    <description>Created with Sketch (http://www.bohemiancoding.com/sketch)</description>
    <defs></defs>
    <g id="Page-3" stroke="none" stroke-width="1" fill="none" fill-rule="evenodd" sketch:type="MSPage">
        <path d="M15.625,39 L15.4296875,39.1953125 C15.3157546,39.1953125 14.2496846,39.1627607 12.2314453,39.0976562 C10.2945867,39.0325518 9.00879224,39 8.37402344,39 C8.03222485,39 5.72105005,39.0651035 1.44042969,39.1953125 L1.24511719,39 L1.24511719,37.7792969 L1.44042969,37.6328125 C2.87272852,37.5839841 3.8696261,37.5107427 4.43115234,37.4130859 C4.99267859,37.3154292 5.36295483,37.1608083 5.54199219,36.9492188 C5.72102954,36.7376292 5.84309863,36.3917667 5.90820312,35.9116211 C5.97330762,35.4314755 6.02213525,34.2189225 6.0546875,32.2739258 C6.08723975,30.3289291 6.10351562,28.7379619 6.10351562,27.5009766 L6.10351562,16.1972656 C6.10351562,14.5371011 6.08317078,12.7508234 6.04248047,10.8383789 C6.00179016,8.92593445 5.93668665,7.79069189 5.84716797,7.43261719 C5.75764929,7.07454248 5.62744226,6.81819739 5.45654297,6.66357422 C5.28564368,6.50895105 4.95198816,6.38688196 4.45556641,6.29736328 C3.95914465,6.2078446 2.95410913,6.13053418 1.44042969,6.06542969 L1.24511719,5.89453125 L1.24511719,4.67382812 L1.44042969,4.50292969 L2.90527344,4.52734375 L3.88183594,4.55175781 L5.56640625,4.57617188 L8.984375,4.60058594 L14.0625,4.64941406 C15.9993586,4.66569019 18.1152229,4.68196606 20.4101562,4.69824219 L30.2001953,4.625 L35.9375,4.57617188 C37.0442764,4.55989575 38.1428982,4.53548193 39.2333984,4.50292969 L39.4287109,4.67382812 L39.4287109,5.89453125 L39.2333984,6.06542969 C37.6383384,6.11425806 36.6007511,6.19156848 36.1206055,6.29736328 C35.6404598,6.40315808 35.3190112,6.53743408 35.15625,6.70019531 C34.9934888,6.86295654 34.8714197,7.13964648 34.7900391,7.53027344 C34.7086584,7.92090039 34.6516929,9.16600513 34.6191406,11.265625 C34.5865884,13.3652449 34.5703125,15.0091086 34.5703125,16.1972656 L34.5703125,27.5009766 C34.5703125,28.7705142 34.5865884,30.3655503 34.6191406,32.2861328 C34.6516929,34.2067153 34.6964515,35.4151993 34.753418,35.9116211 C34.8103844,36.4080428 34.9365225,36.7579742 35.1318359,36.9614258 C35.3271494,37.1648773 35.7177705,37.3154292 36.3037109,37.4130859 C36.8896514,37.5107427 37.8662041,37.5839841 39.2333984,37.6328125 L39.4287109,37.7792969 L39.4287109,39 L39.2333984,39.1953125 C39.1031895,39.1953125 38.0371194,39.1627607 36.0351562,39.0976562 C34.0982976,39.0325518 32.8043652,39 32.1533203,39 C31.8277979,39 29.516623,39.0651035 25.2197266,39.1953125 L25.0488281,39 L25.0488281,37.7792969 L25.2197266,37.6328125 C26.8473389,37.567708 27.8971331,37.4822596 28.3691406,37.3764648 C28.8411482,37.27067 29.1544589,37.136394 29.309082,36.9736328 C29.4637052,36.8108716 29.5817053,36.5341816 29.6630859,36.1435547 C29.7444666,35.7529277 29.8055011,34.507823 29.8461914,32.4082031 C29.8868817,30.3085833 29.9072266,28.6728574 29.9072266,27.5009766 L29.9072266,6.87109375 L29.6386719,6.60253906 L11.0351562,6.60253906 L10.7666016,6.87109375 L10.7666016,27.5009766 C10.7666016,28.754238 10.7828774,30.3492742 10.8154297,32.2861328 C10.8479819,34.2229915 10.8968096,35.4355444 10.9619141,35.9238281 C11.0270186,36.4121118 11.1531566,36.7579742 11.340332,36.9614258 C11.5275074,37.1648773 11.9099906,37.3154292 12.487793,37.4130859 C13.0655953,37.5107427 14.046217,37.5839841 15.4296875,37.6328125 L15.625,37.7792969 L15.625,39 Z M49.7314453,15.4404297 L50.1708984,15.7333984 C50.0081372,17.653981 49.9186199,19.2978447 49.9023438,20.6650391 C50.9114634,19.7210239 51.904292,18.8299196 52.8808594,17.9916992 C53.8574268,17.1534789 54.5206688,16.6326508 54.8706055,16.4291992 C55.2205421,16.2257477 55.7454392,16.050782 56.4453125,15.9042969 C57.1451858,15.7578118 58.0078074,15.6845703 59.0332031,15.6845703 C62.0117336,15.6845703 64.3635981,16.6082264 66.0888672,18.4555664 C67.8141362,20.3029064 68.6767578,22.6751157 68.6767578,25.5722656 C68.6767578,26.7766987 68.4814473,27.9973896 68.0908203,29.234375 C67.7001934,30.4713604 67.1915721,31.6025339 66.5649414,32.6279297 C65.9383107,33.6533254 65.4541033,34.3084296 65.1123047,34.5932617 C64.7705061,34.8780939 63.8183672,35.4925083 62.2558594,36.4365234 C61.6210906,36.8108743 60.9781934,37.2340471 60.3271484,37.7060547 C59.3994094,38.3570996 58.7931329,38.7680656 58.5083008,38.9389648 C58.2234686,39.1098641 57.7514681,39.2726229 57.0922852,39.4272461 C56.4331022,39.5818693 55.7210325,39.6591797 54.9560547,39.6591797 C53.2633379,39.6591797 51.5787844,39.2278689 49.9023438,38.3652344 L49.9023438,42.9306641 C49.9023438,44.1676494 49.9389645,45.7301338 50.012207,47.6181641 C50.0854496,49.5061943 50.1912428,50.5763334 50.3295898,50.8286133 C50.4679369,51.0808932 50.6632474,51.2477209 50.9155273,51.3291016 C51.1678073,51.4104822 51.9531184,51.5081375 53.2714844,51.6220703 L53.4912109,51.8173828 L53.4912109,52.8427734 L53.2714844,53.0625 C51.3183496,52.932291 49.5117271,52.8671875 47.8515625,52.8671875 C46.1913979,52.8671875 44.3847754,52.932291 42.4316406,53.0625 L42.2363281,52.8427734 L42.2363281,51.8173828 L42.4316406,51.6220703 C43.668626,51.5244136 44.4132474,51.4430342 44.6655273,51.3779297 C44.9178073,51.3128252 45.1049799,51.211101 45.2270508,51.0727539 C45.3491217,50.9344069 45.446777,50.7065446 45.5200195,50.3891602 C45.5932621,50.0717758 45.6624346,48.9406022 45.7275391,46.9956055 C45.7926436,45.0506088 45.8251953,43.6956418 45.8251953,42.9306641 L45.8251953,24.2050781 C45.8251953,23.4726526 45.7967125,22.5327206 45.7397461,21.3852539 C45.6827797,20.2377872 45.6298831,19.5745452 45.5810547,19.3955078 C45.5322263,19.2164705 45.4142262,19.0659186 45.2270508,18.9438477 C45.0398754,18.8217767 44.6370474,18.7607422 44.0185547,18.7607422 C43.9208979,18.7607422 43.4000698,18.7444663 42.4560547,18.7119141 L42.2363281,18.5166016 L42.2363281,17.4667969 L42.4316406,17.2470703 C45.3450667,16.8238911 47.7783105,16.2216836 49.7314453,15.4404297 Z M49.9023438,34.1660156 C51.7740979,36.0540459 53.9225139,36.9980469 56.3476562,36.9980469 C58.8379031,36.9980469 60.7950775,36.0621838 62.2192383,34.1904297 C63.643399,32.3186755 64.3554688,30.0319146 64.3554688,27.3300781 C64.3554688,25.6699136 64.0421581,24.1847396 63.4155273,22.8745117 C62.7888966,21.5642838 61.8530336,20.5511104 60.6079102,19.8349609 C59.3627867,19.1188115 58.0729233,18.7607422 56.7382812,18.7607422 C55.8430945,18.7607422 54.9845419,18.919432 54.1625977,19.2368164 C53.3406534,19.5542008 52.5797561,20.0058564 51.8798828,20.5917969 C51.1800095,21.1777373 50.6917332,21.7148413 50.4150391,22.203125 C50.138345,22.6914087 49.9837241,23.0657539 49.9511719,23.3261719 C49.9186196,23.5865898 49.9023438,24.0423145 49.9023438,24.6933594 L49.9023438,34.1660156 Z M72.6318359,39 L72.6318359,37.9746094 L72.8271484,37.8037109 C73.8037158,37.6572258 74.5279924,37.494467 75,37.3154297 C75.4720076,37.1363923 75.7853182,36.9288749 75.9399414,36.6928711 C76.0945646,36.4568673 76.1922198,36.1679705 76.2329102,35.8261719 C76.2736005,35.4843733 76.3142902,34.6014069 76.3549805,33.1772461 C76.3956708,31.7530853 76.4160156,30.6666704 76.4160156,29.9179688 L76.4160156,25.4990234 C76.4160156,21.6578584 76.2898776,19.4443389 76.0375977,18.8583984 C75.7853177,18.272458 74.7151787,17.8574231 72.8271484,17.6132812 L72.6318359,17.4179688 L72.6318359,16.3925781 L72.8271484,16.2216797 C75.0895295,16.3518887 76.9693936,16.4169922 78.4667969,16.4169922 C79.9153718,16.4169922 81.7952358,16.3518887 84.1064453,16.2216797 L84.2773438,16.3925781 L84.2773438,17.4179688 L84.1064453,17.6132812 C83.0647734,17.7597664 82.3364279,17.9184562 81.9213867,18.0893555 C81.5063456,18.2602548 81.2174487,18.4392894 81.0546875,18.6264648 C80.8919263,18.8136403 80.7861331,19.0455715 80.7373047,19.3222656 C80.6884763,19.5989597 80.6355797,20.4819261 80.5786133,21.9711914 C80.5216469,23.4604567 80.4931641,24.6363889 80.4931641,25.4990234 L80.4931641,35.5820312 L80.8837891,35.7285156 C82.4300208,33.4173062 84.4238159,30.1824752 86.8652344,26.0239258 C89.3066528,21.8653763 91.170241,18.5979937 92.4560547,16.2216797 C93.9860103,16.3518887 95.2636667,16.4169922 96.2890625,16.4169922 C97.3470105,16.4169922 98.6490808,16.3518887 100.195312,16.2216797 L100.390625,16.3925781 L100.390625,17.4179688 L100.195312,17.6132812 C98.2910061,17.8574231 97.2167981,18.2846649 96.9726562,18.8950195 C96.7285144,19.5053741 96.6064453,21.7066868 96.6064453,25.4990234 L96.6064453,29.9179688 C96.6064453,33.7428577 96.7325834,35.9482393 96.9848633,36.5341797 C97.2371432,37.1201201 98.3072822,37.543293 100.195312,37.8037109 L100.390625,37.9746094 L100.390625,39 L100.195312,39.1953125 C97.9329314,39.0651035 96.0530674,39 94.5556641,39 C93.1070891,39 91.2272251,39.0651035 88.9160156,39.1953125 L88.7207031,39 L88.7207031,37.9746094 L88.9160156,37.8037109 C90.820322,37.543293 91.898599,37.1119822 92.1508789,36.5097656 C92.4031588,35.9075491 92.5292969,33.7103054 92.5292969,29.9179688 L92.5292969,19.9814453 L92.1386719,19.8349609 C90.9505149,21.5927822 89.050306,24.7340269 86.4379883,29.2587891 C83.8256705,33.7835513 81.9905652,37.0956926 80.9326172,39.1953125 C79.4026616,39.0651035 78.1494189,39 77.1728516,39 C76.1149036,39 74.6663503,39.0651035 72.8271484,39.1953125 L72.6318359,39 Z M103.78418,39 L103.78418,37.9746094 L103.979492,37.8037109 C105.200201,37.6897781 105.940754,37.5799159 106.201172,37.4741211 C106.46159,37.3683263 106.677245,37.1608088 106.848145,36.8515625 C107.019044,36.5423162 107.120768,35.7936257 107.15332,34.6054688 C107.185873,33.4173118 107.202148,31.8059998 107.202148,29.7714844 L107.202148,25.6210938 C107.202148,24.3515562 107.185873,22.9314857 107.15332,21.3608398 C107.120768,19.790194 107.014975,18.850262 106.835938,18.5410156 C106.6569,18.2317693 106.433107,18.0242518 106.164551,17.918457 C105.895995,17.8126622 105.167649,17.710938 103.979492,17.6132812 L103.78418,17.4179688 L103.78418,16.3925781 L103.979492,16.2216797 C106.209321,16.3518887 107.902012,16.4169922 109.057617,16.4169922 C109.611005,16.4169922 110.38411,16.4007163 111.376953,16.3681641 C114.225275,16.2867834 116.17838,16.2460938 117.236328,16.2460938 C119.108082,16.2460938 120.483394,16.6611287 121.362305,17.4912109 C122.241215,18.3212932 122.680664,19.3629495 122.680664,20.6162109 C122.680664,23.2854951 120.865904,25.1083936 117.236328,26.0849609 C119.482433,26.2151699 121.142573,26.7726188 122.216797,27.7573242 C123.291021,28.7420297 123.828125,30.0237551 123.828125,31.6025391 C123.828125,33.5393977 123.091641,35.2809167 121.618652,36.8271484 C120.145663,38.3733801 117.781592,39.1464844 114.526367,39.1464844 C114.298501,39.1464844 113.818363,39.1302085 113.085938,39.0976562 C111.735019,39.0325518 110.660811,39 109.863281,39 C107.89387,39.0651045 105.932627,39.130208 103.979492,39.1953125 L103.78418,39 Z M111.05957,25.7919922 C111.710615,25.8245444 112.231443,25.8408203 112.62207,25.8408203 C114.884451,25.8408203 116.467281,25.4705441 117.370605,24.7299805 C118.27393,23.9894169 118.725586,22.9681055 118.725586,21.6660156 C118.725586,20.526687 118.363448,19.586755 117.63916,18.8461914 C116.914873,18.1056278 115.633147,17.7353516 113.793945,17.7353516 C112.980139,17.7353516 112.125656,17.7760413 111.230469,17.8574219 L111.05957,25.7919922 Z M111.05957,27.2568359 L111.230469,37.4375 C112.044275,37.5514329 112.939448,37.6083984 113.916016,37.6083984 C115.332038,37.6083984 116.459143,37.3317085 117.297363,36.7783203 C118.135584,36.2249321 118.733722,35.5494832 119.091797,34.7519531 C119.449872,33.9544231 119.628906,33.0918015 119.628906,32.1640625 C119.628906,31.0898384 119.384768,30.1458374 118.896484,29.3320312 C118.408201,28.5182251 117.696131,27.9567073 116.760254,27.6474609 C115.824377,27.3382146 114.534513,27.1835938 112.890625,27.1835938 C112.467446,27.1835938 111.8571,27.2080076 111.05957,27.2568359 Z M147.460938,35.4111328 L146.679688,37.1689453 C144.986971,38.2594456 143.477383,38.9674463 142.150879,39.2929688 C140.824375,39.6184912 139.640305,39.78125 138.598633,39.78125 C136.645498,39.78125 134.794117,39.3987668 133.044434,38.6337891 C131.29475,37.8688113 129.870611,36.5748789 128.771973,34.7519531 C127.673334,32.9290273 127.124023,30.7317837 127.124023,28.1601562 C127.124023,26.4511633 127.33561,24.9090238 127.758789,23.5336914 C128.181968,22.158359 128.625486,21.1370476 129.089355,20.4697266 C129.553225,19.8024055 130.338536,19.061853 131.445312,18.2480469 C132.552089,17.4342407 133.723952,16.7832056 134.960938,16.2949219 C136.197923,15.8066382 137.532545,15.5625 138.964844,15.5625 C140.917979,15.5625 142.639153,16.0222936 144.128418,16.9418945 C145.617683,17.8614955 146.663408,19.0374277 147.265625,20.4697266 C147.867842,21.9020254 148.168945,23.4238201 148.168945,25.0351562 C148.168945,25.5397161 148.144531,26.0279924 148.095703,26.5 L147.827148,26.7685547 C146.720372,27.0126965 145.231129,27.1754553 143.359375,27.2568359 C141.487621,27.3382166 140.250654,27.3789062 139.648438,27.3789062 L131.811523,27.3789062 C131.844076,30.7480637 132.690421,33.2301353 134.350586,34.8251953 C136.01075,36.4202554 138.045235,37.2177734 140.454102,37.2177734 C141.59343,37.2177734 142.687983,37.0224629 143.737793,36.6318359 C144.787603,36.241209 145.898432,35.695967 147.070312,34.9960938 L147.460938,35.4111328 Z M131.811523,25.4257812 C132.104494,25.4746096 133.231598,25.5315752 135.192871,25.5966797 C137.154144,25.6617842 138.606766,25.6943359 139.550781,25.6943359 C141.813162,25.6943359 143.188474,25.6536462 143.676758,25.5722656 C143.693034,25.1816387 143.701172,24.8805349 143.701172,24.6689453 C143.701172,22.1461462 143.188482,20.2703512 142.163086,19.0415039 C141.13769,17.8126566 139.737965,17.1982422 137.963867,17.1982422 C136.027009,17.1982422 134.517421,17.889967 133.435059,19.2734375 C132.352696,20.656908 131.811523,22.7076687 131.811523,25.4257812 Z M150.756836,16.3925781 L150.952148,16.2216797 C154.125992,16.3844409 157.682272,16.4658203 161.621094,16.4658203 C165.62502,16.4658203 169.1813,16.3844409 172.290039,16.2216797 L172.460938,16.3925781 C172.363281,18.5410264 172.314453,20.3557869 172.314453,21.8369141 L172.167969,21.9833984 L171.191406,21.9833984 L171.044922,21.8369141 C170.833332,20.0790928 170.662436,19.0415055 170.532227,18.7241211 C170.402018,18.4067367 170.218914,18.1992192 169.98291,18.1015625 C169.746906,18.0039058 169.287113,17.9550781 168.603516,17.9550781 L163.647461,17.9550781 L163.549805,24.2050781 L163.549805,29.7714844 C163.549805,30.9759175 163.566081,32.379712 163.598633,33.9829102 C163.631185,35.5861083 163.72884,36.5423162 163.891602,36.8515625 C164.054363,37.1608088 164.274087,37.3683263 164.550781,37.4741211 C164.827475,37.5799159 165.568028,37.6897781 166.772461,37.8037109 L166.967773,37.9746094 L166.967773,39 L166.772461,39.1953125 C165.144849,39.0651035 163.427743,39 161.621094,39 C159.733063,39 158.015958,39.0651035 156.469727,39.1953125 L156.274414,39 L156.274414,37.9746094 L156.469727,37.8037109 C157.690436,37.6897781 158.435057,37.5799159 158.703613,37.4741211 C158.972169,37.3683263 159.187825,37.1567399 159.350586,36.8393555 C159.513347,36.5219711 159.611002,35.7325909 159.643555,34.4711914 C159.676107,33.2097919 159.692383,31.6432385 159.692383,29.7714844 L159.692383,24.2783203 C159.643554,22.1624243 159.602865,20.054698 159.570312,17.9550781 L154.614258,17.9550781 C153.914385,17.9550781 153.446453,18.0079747 153.210449,18.1137695 C152.974445,18.2195643 152.795411,18.4474266 152.67334,18.7973633 C152.551269,19.1472999 152.384441,20.1604734 152.172852,21.8369141 L152.026367,21.9833984 L151.074219,21.9833984 L150.90332,21.8369141 C150.90332,21.1858691 150.854493,19.3711086 150.756836,16.3925781 Z M182.666016,3.94140625 L182.666016,6.52929688 L181.37207,20.4208984 L180.761719,28.1113281 L179.418945,29.3320312 L178.955078,29.0878906 C178.824869,25.8001138 178.442386,20.9743157 177.807617,14.6103516 C177.547199,11.9573435 177.380371,10.0815485 177.307129,8.98291016 C177.233886,7.88427185 177.205404,6.85482251 177.22168,5.89453125 C178.60515,5.24348633 179.874669,4.59245117 181.030273,3.94140625 L182.666016,3.94140625 Z M179.785156,33.4091797 C180.598962,33.4091797 181.286618,33.6940076 181.848145,34.2636719 C182.409671,34.8333362 182.69043,35.525061 182.69043,36.3388672 C182.69043,37.1363972 182.405602,37.8199841 181.835938,38.3896484 C181.266273,38.9593127 180.582686,39.2441406 179.785156,39.2441406 C178.97135,39.2441406 178.279625,38.9593127 177.709961,38.3896484 C177.140297,37.8199841 176.855469,37.1363972 176.855469,36.3388672 C176.855469,35.525061 177.140297,34.8333362 177.709961,34.2636719 C178.279625,33.6940076 178.97135,33.4091797 179.785156,33.4091797 Z M206.054688,16.1484375 C206.868494,16.1484375 207.55615,16.4332654 208.117676,17.0029297 C208.679202,17.572594 208.959961,18.2643188 208.959961,19.078125 C208.959961,19.875655 208.675133,20.5592419 208.105469,21.1289062 C207.535804,21.6985706 206.852218,21.9833984 206.054688,21.9833984 C205.240881,21.9833984 204.549156,21.6985706 203.979492,21.1289062 C203.409828,20.5592419 203.125,19.875655 203.125,19.078125 C203.125,18.2643188 203.409828,17.572594 203.979492,17.0029297 C204.549156,16.4332654 205.240881,16.1484375 206.054688,16.1484375 Z M206.054688,33.4091797 C206.868494,33.4091797 207.55615,33.6940076 208.117676,34.2636719 C208.679202,34.8333362 208.959961,35.525061 208.959961,36.3388672 C208.959961,37.1363972 208.675133,37.8199841 208.105469,38.3896484 C207.535804,38.9593127 206.852218,39.2441406 206.054688,39.2441406 C205.240881,39.2441406 204.549156,38.9593127 203.979492,38.3896484 C203.409828,37.8199841 203.125,37.1363972 203.125,36.3388672 C203.125,35.525061 203.409828,34.8333362 203.979492,34.2636719 C204.549156,33.6940076 205.240881,33.4091797 206.054688,33.4091797 Z M228.759766,47.3007812 L227.758789,46.0556641 C230.362969,43.2398948 232.303867,40.0660984 233.581543,36.5341797 C234.859219,33.002261 235.498047,28.9251533 235.498047,24.3027344 C235.498047,19.2896885 234.899908,15.0823738 233.703613,11.6806641 C232.507318,8.27895435 230.52573,4.89357153 227.758789,1.52441406 L228.955078,0.474609375 C232.421892,3.40431152 235.091136,6.88734961 236.962891,10.9238281 C238.834645,14.9603066 239.770508,19.3710698 239.770508,24.15625 C239.770508,26.939467 239.465335,29.4785042 238.85498,31.7734375 C238.244626,34.0683708 237.426763,36.1516833 236.401367,38.0234375 C235.375971,39.8951917 234.163418,41.6733314 232.763672,43.3579102 C231.363925,45.0424889 230.029303,46.3567661 228.759766,47.3007812 Z" id="Привет!-:-)" fill="#000000" sketch:type="MSShapeGroup"></path>
    </g>
</svg>