<?xml version="1.0" encoding="UTF-8" standalone="no"?>
<svg width="346px" height="54px" viewBox="0 0 346 54" version="1.1" xmlns="http://www.w3.org/2000/svg" xmlns:xlink="http://www.w3.org/1999/xlink" xmlns:sketch="http://www.bohemiancoding.com/sketch/ns">
    <title>hello-logo</title>
    <description>Created with Sketch (http://www.bohemiancoding.com/sketch)</description>
    <defs></defs>
    <g id="Page-2" stroke="none" stroke-width="1" fill="none" fill-rule="evenodd" sketch:type="MSPage">
        <path d="M7.98535156,24.6914062 L7.98535156,41 L2.27246094,41 L2.27246094,6.99121094 L7.98535156,6.99121094 L7.98535156,22.4941406 L25.0751953,22.4941406 L25.0751953,6.99121094 L30.7880859,6.99121094 L30.7880859,41 L25.0751953,41 L25.0751953,24.6914062 L7.98535156,24.6914062 Z M49.7333984,41.5615234 C47.959301,41.5615234 46.2950924,41.2278679 44.7407227,40.5605469 C43.1863529,39.8932258 41.827317,38.9858456 40.6635742,37.8383789 C39.4998314,36.6909122 38.5802443,35.3481522 37.9047852,33.8100586 C37.229326,32.271965 36.8916016,30.6240322 36.8916016,28.8662109 C36.8916016,26.7665911 37.2008433,24.8216235 37.8193359,23.03125 C38.4378286,21.2408765 39.3085881,19.694668 40.4316406,18.3925781 C41.5546931,17.0904883 42.90966,16.0732458 44.496582,15.3408203 C46.083504,14.6083948 47.8453679,14.2421875 49.7822266,14.2421875 C51.5074956,14.2421875 53.0862559,14.5432913 54.5185547,15.1455078 C55.9508535,15.7477244 57.1796824,16.5574493 58.2050781,17.574707 C59.2304739,18.5919647 60.0279919,19.767897 60.5976562,21.1025391 C61.1673206,22.4371812 61.4521484,23.8369067 61.4521484,25.3017578 L41.8964844,25.3017578 C41.8964844,27.0595791 42.1243467,28.691236 42.5800781,30.1967773 C43.0358096,31.7023187 43.6705688,33.0003201 44.484375,34.0908203 C45.2981812,35.1813206 46.2747339,36.0358042 47.4140625,36.6542969 C48.5533911,37.2727896 49.7984958,37.5820312 51.1494141,37.5820312 C52.2887427,37.5820312 53.3792266,37.3989276 54.4208984,37.0327148 C55.4625703,36.6665021 56.4065713,36.1863636 57.2529297,35.5922852 C58.0992881,34.9982067 58.8194957,34.3146198 59.4135742,33.5415039 C60.0076527,32.7683881 60.4267566,31.974939 60.6708984,31.1611328 L62.1601562,31.8203125 C61.7858054,33.1712307 61.1795289,34.4366803 60.3413086,35.6166992 C59.5030883,36.7967181 58.5265355,37.8261675 57.4116211,38.7050781 C56.2967067,39.5839888 55.0760157,40.2797826 53.7495117,40.7924805 C52.4230077,41.3051783 51.0843167,41.5615234 49.7333984,41.5615234 Z M54.9335938,23.2021484 C54.9335938,22.2093049 54.7586281,21.2856488 54.4086914,20.4311523 C54.0587548,19.5766559 53.5786163,18.8361034 52.9682617,18.2094727 C52.3579071,17.5828419 51.6417684,17.0904966 50.8198242,16.7324219 C49.99788,16.3743472 49.1149136,16.1953125 48.1708984,16.1953125 C47.3896445,16.1953125 46.6368851,16.3743472 45.9125977,16.7324219 C45.1883102,17.0904966 44.545413,17.5787729 43.9838867,18.1972656 C43.4223605,18.8157583 42.9584979,19.5522418 42.5922852,20.4067383 C42.2260724,21.2612347 42.0022791,22.1848909 41.9208984,23.1777344 L54.9335938,23.2021484 Z M72.4873047,41 L67.2871094,41 L67.2871094,2.84082031 L70.9980469,1.3515625 L72.4873047,1.3515625 L72.4873047,41 Z M84.2792969,41 L79.0791016,41 L79.0791016,2.84082031 L82.7900391,1.3515625 L84.2792969,1.3515625 L84.2792969,41 Z M103.395508,41.5615234 C101.393545,41.5615234 99.5421635,41.211592 97.8413086,40.5117188 C96.1404537,39.8118455 94.6756246,38.8597065 93.4467773,37.6552734 C92.2179301,36.4508403 91.2576532,35.0389078 90.565918,33.4194336 C89.8741827,31.7999594 89.5283203,30.0706472 89.5283203,28.2314453 C89.5283203,26.2945867 89.8741827,24.4757572 90.565918,22.7749023 C91.2576532,21.0740475 92.2179301,19.5929425 93.4467773,18.331543 C94.6756246,17.0701434 96.1404537,16.0732458 97.8413086,15.3408203 C99.5421635,14.6083948 101.393545,14.2421875 103.395508,14.2421875 C105.397471,14.2421875 107.240714,14.575843 108.925293,15.2431641 C110.609872,15.9104851 112.070632,16.8260033 113.307617,17.9897461 C114.544603,19.1534889 115.508948,20.5206627 116.200684,22.0913086 C116.892419,23.6619545 117.238281,25.342439 117.238281,27.1328125 C117.238281,29.1184995 116.892419,30.9861566 116.200684,32.7358398 C115.508948,34.4855231 114.544603,36.0154557 113.307617,37.3256836 C112.070632,38.6359115 110.609872,39.6694298 108.925293,40.4262695 C107.240714,41.1831093 105.397471,41.5615234 103.395508,41.5615234 Z M104.37207,39.6328125 C105.397466,39.6328125 106.337398,39.3683295 107.191895,38.8393555 C108.046391,38.3103815 108.786943,37.6023807 109.413574,36.715332 C110.040205,35.8282833 110.524412,34.790696 110.866211,33.6025391 C111.20801,32.4143821 111.378906,31.1611394 111.378906,29.8427734 C111.378906,27.938467 111.216147,26.1603273 110.890625,24.5083008 C110.565103,22.8562743 110.036136,21.41179 109.303711,20.1748047 C108.571285,18.9378193 107.619146,17.9653356 106.447266,17.2573242 C105.275385,16.5493129 103.834969,16.1953125 102.125977,16.1953125 C101.247066,16.1953125 100.40072,16.4475886 99.5869141,16.9521484 C98.7731079,17.4567083 98.0529003,18.1484331 97.4262695,19.0273438 C96.7996388,19.9062544 96.2991555,20.9316348 95.9248047,22.1035156 C95.5504539,23.2753965 95.3632812,24.5205012 95.3632812,25.8388672 C95.3632812,27.7431736 95.5667297,29.5335203 95.9736328,31.2099609 C96.3805359,32.8864016 96.9664675,34.3471617 97.7314453,35.5922852 C98.4964231,36.8374086 99.4404241,37.8220992 100.563477,38.5463867 C101.686529,39.2706742 102.956048,39.6328125 104.37207,39.6328125 Z M119.337891,48.2021484 C120.119145,47.9905588 120.84749,47.6853861 121.522949,47.2866211 C122.198408,46.8878561 122.788409,46.4321315 123.292969,45.9194336 C123.797529,45.4067357 124.196288,44.8492869 124.489258,44.2470703 C124.782228,43.6448538 124.928711,43.0263704 124.928711,42.3916016 C124.928711,42.0172507 124.855469,41.6917332 124.708984,41.4150391 C124.562499,41.138345 124.375327,41 124.147461,41 C123.935871,41 123.756837,41.0406897 123.610352,41.1220703 C123.463866,41.2034509 123.313315,41.2970372 123.158691,41.402832 C123.004068,41.5086268 122.829103,41.6022131 122.633789,41.6835938 C122.438476,41.7649744 122.178062,41.8056641 121.852539,41.8056641 C121.51074,41.8056641 121.189292,41.7324226 120.888184,41.5859375 C120.587075,41.4394524 120.318523,41.2360039 120.08252,40.9755859 C119.846516,40.715168 119.663412,40.4099952 119.533203,40.0600586 C119.402994,39.7101219 119.337891,39.3235698 119.337891,38.9003906 C119.337891,38.4609353 119.427408,38.0540383 119.606445,37.6796875 C119.785483,37.3053367 120.03369,36.9757501 120.351074,36.690918 C120.668459,36.4060858 121.038735,36.1863615 121.461914,36.0317383 C121.885093,35.8771151 122.340818,35.7998047 122.829102,35.7998047 C123.46387,35.7998047 124.053871,35.9381497 124.599121,36.2148438 C125.144371,36.4915378 125.620441,36.874021 126.027344,37.3623047 C126.434247,37.8505884 126.755695,38.4202441 126.991699,39.0712891 C127.227703,39.722334 127.345703,40.4140588 127.345703,41.1464844 C127.345703,42.3020891 127.130048,43.3681592 126.69873,44.3447266 C126.267413,45.3212939 125.685551,46.1717086 124.953125,46.8959961 C124.220699,47.6202836 123.370285,48.2021462 122.401855,48.6416016 C121.433426,49.0810569 120.412115,49.333333 119.337891,49.3984375 L119.337891,48.2021484 Z M146.681641,6.99121094 L152.394531,6.99121094 L152.394531,41 L146.681641,41 L146.681641,6.99121094 Z M158.498047,16.9521484 C159.279301,16.7405588 160.007646,16.4353861 160.683105,16.0366211 C161.358565,15.6378561 161.948565,15.1821315 162.453125,14.6694336 C162.957685,14.1567357 163.356444,13.5992869 163.649414,12.9970703 C163.942384,12.3948538 164.088867,11.7763704 164.088867,11.1416016 C164.088867,10.7672507 164.015626,10.4417332 163.869141,10.1650391 C163.722656,9.88834497 163.535483,9.75 163.307617,9.75 C163.096028,9.75 162.916993,9.7906897 162.770508,9.87207031 C162.624023,9.95345093 162.473471,10.0470372 162.318848,10.152832 C162.164224,10.2586268 161.989259,10.3522131 161.793945,10.4335938 C161.598632,10.5149744 161.338218,10.5556641 161.012695,10.5556641 C160.670897,10.5556641 160.349448,10.4824226 160.04834,10.3359375 C159.747232,10.1894524 159.47868,9.98600391 159.242676,9.72558594 C159.006672,9.46516797 158.823568,9.15999524 158.693359,8.81005859 C158.56315,8.46012195 158.498047,8.07356982 158.498047,7.65039062 C158.498047,7.2109353 158.587564,6.80403833 158.766602,6.4296875 C158.945639,6.05533667 159.193846,5.72575012 159.51123,5.44091797 C159.828615,5.15608582 160.198891,4.93636145 160.62207,4.78173828 C161.04525,4.62711511 161.500974,4.54980469 161.989258,4.54980469 C162.624027,4.54980469 163.214027,4.68814966 163.759277,4.96484375 C164.304527,5.24153784 164.780597,5.624021 165.1875,6.11230469 C165.594403,6.60058838 165.915852,7.17024414 166.151855,7.82128906 C166.387859,8.47233398 166.505859,9.16405884 166.505859,9.89648438 C166.505859,11.0520891 166.290204,12.1181592 165.858887,13.0947266 C165.427569,14.0712939 164.845707,14.9217086 164.113281,15.6459961 C163.380856,16.3702836 162.530441,16.9521462 161.562012,17.3916016 C160.593582,17.8310569 159.572271,18.083333 158.498047,18.1484375 L158.498047,16.9521484 Z M171.388672,14.7792969 L176.588867,14.7792969 L176.588867,19.6865234 C177.256188,18.9540979 178.008948,18.262373 178.847168,17.6113281 C179.685388,16.9602832 180.54801,16.3824895 181.435059,15.8779297 C182.322107,15.3733699 183.213212,14.9746108 184.108398,14.6816406 C185.003585,14.3886704 185.849931,14.2421875 186.647461,14.2421875 C187.428715,14.2421875 188.214026,14.3805325 189.003418,14.6572266 C189.79281,14.9339207 190.525224,15.3204728 191.200684,15.8168945 C191.876143,16.3133163 192.458005,16.8992479 192.946289,17.574707 C193.434573,18.2501661 193.751952,18.9866497 193.898438,19.7841797 C194.337893,19.0192019 194.936031,18.2989943 195.692871,17.6235352 C196.449711,16.948076 197.291988,16.3621444 198.219727,15.8657227 C199.147466,15.3693009 200.124018,14.9746108 201.149414,14.6816406 C202.17481,14.3886704 203.183914,14.2421875 204.176758,14.2421875 C205.169601,14.2421875 206.101395,14.4619119 206.972168,14.9013672 C207.842941,15.3408225 208.603838,15.9308231 209.254883,16.6713867 C209.905928,17.4119503 210.418618,18.2827098 210.792969,19.2836914 C211.16732,20.284673 211.354492,21.3466741 211.354492,22.4697266 L211.354492,41 L206.129883,41 L206.129883,23.2265625 C206.129883,22.494137 206.003745,21.7983431 205.751465,21.1391602 C205.499185,20.4799772 205.16146,19.9021835 204.738281,19.4057617 C204.315102,18.90934 203.818688,18.5146499 203.249023,18.2216797 C202.679359,17.9287095 202.077152,17.7822266 201.442383,17.7822266 C200.726233,17.7822266 199.997888,17.8798818 199.257324,18.0751953 C198.516761,18.2705088 197.812829,18.5390608 197.145508,18.8808594 C196.478187,19.222658 195.867841,19.621417 195.314453,20.0771484 C194.761065,20.5328799 194.321616,21.0130183 193.996094,21.5175781 L193.996094,41 L188.795898,41 L188.795898,23.2265625 C188.795898,22.494137 188.66976,21.7983431 188.41748,21.1391602 C188.165201,20.4799772 187.819338,19.9021835 187.379883,19.4057617 C186.940427,18.90934 186.435875,18.5146499 185.866211,18.2216797 C185.296547,17.9287095 184.694339,17.7822266 184.05957,17.7822266 C183.392249,17.7822266 182.704593,17.8839508 181.996582,18.0874023 C181.288571,18.2908539 180.596846,18.5634749 179.921387,18.9052734 C179.245928,19.247072 178.619306,19.6417621 178.041504,20.0893555 C177.463702,20.5369489 176.979494,21.0130183 176.588867,21.5175781 L176.588867,41 L171.388672,41 L171.388672,14.7792969 Z M237.428711,41 L232.228516,41 L232.228516,2.84082031 L235.939453,1.3515625 L237.428711,1.3515625 L237.428711,41 Z M256.544922,41.5615234 C254.542959,41.5615234 252.691578,41.211592 250.990723,40.5117188 C249.289868,39.8118455 247.825039,38.8597065 246.596191,37.6552734 C245.367344,36.4508403 244.407067,35.0389078 243.715332,33.4194336 C243.023597,31.7999594 242.677734,30.0706472 242.677734,28.2314453 C242.677734,26.2945867 243.023597,24.4757572 243.715332,22.7749023 C244.407067,21.0740475 245.367344,19.5929425 246.596191,18.331543 C247.825039,17.0701434 249.289868,16.0732458 250.990723,15.3408203 C252.691578,14.6083948 254.542959,14.2421875 256.544922,14.2421875 C258.546885,14.2421875 260.390128,14.575843 262.074707,15.2431641 C263.759286,15.9104851 265.220046,16.8260033 266.457031,17.9897461 C267.694017,19.1534889 268.658362,20.5206627 269.350098,22.0913086 C270.041833,23.6619545 270.387695,25.342439 270.387695,27.1328125 C270.387695,29.1184995 270.041833,30.9861566 269.350098,32.7358398 C268.658362,34.4855231 267.694017,36.0154557 266.457031,37.3256836 C265.220046,38.6359115 263.759286,39.6694298 262.074707,40.4262695 C260.390128,41.1831093 258.546885,41.5615234 256.544922,41.5615234 Z M257.521484,39.6328125 C258.54688,39.6328125 259.486812,39.3683295 260.341309,38.8393555 C261.195805,38.3103815 261.936358,37.6023807 262.562988,36.715332 C263.189619,35.8282833 263.673826,34.790696 264.015625,33.6025391 C264.357424,32.4143821 264.52832,31.1611394 264.52832,29.8427734 C264.52832,27.938467 264.365562,26.1603273 264.040039,24.5083008 C263.714517,22.8562743 263.185551,21.41179 262.453125,20.1748047 C261.720699,18.9378193 260.768561,17.9653356 259.59668,17.2573242 C258.424799,16.5493129 256.984384,16.1953125 255.275391,16.1953125 C254.39648,16.1953125 253.550134,16.4475886 252.736328,16.9521484 C251.922522,17.4567083 251.202314,18.1484331 250.575684,19.0273438 C249.949053,19.9062544 249.44857,20.9316348 249.074219,22.1035156 C248.699868,23.2753965 248.512695,24.5205012 248.512695,25.8388672 C248.512695,27.7431736 248.716144,29.5335203 249.123047,31.2099609 C249.52995,32.8864016 250.115882,34.3471617 250.880859,35.5922852 C251.645837,36.8374086 252.589838,37.8220992 253.712891,38.5463867 C254.835943,39.2706742 256.105462,39.6328125 257.521484,39.6328125 Z M301.417969,16.1464844 L301.417969,18.3193359 L296.4375,18.3193359 C296.958336,19.0354854 297.373371,19.8370724 297.682617,20.7241211 C297.991864,21.6111698 298.146484,22.4941362 298.146484,23.3730469 C298.146484,24.7402412 297.845381,25.981277 297.243164,27.0961914 C296.640948,28.2111058 295.80274,29.1713827 294.728516,29.9770508 C293.654292,30.7827189 292.372566,31.4052712 290.883301,31.8447266 C289.394036,32.2841819 287.754241,32.5039062 285.963867,32.5039062 C285.312822,32.5039062 284.641442,32.4469407 283.949707,32.3330078 C283.257972,32.219075 282.659833,32.08073 282.155273,31.9179688 C281.650714,32.3248718 281.227541,32.7968723 280.885742,33.3339844 C280.543944,33.8710964 280.373047,34.4163384 280.373047,34.9697266 C280.373047,35.4905625 280.661944,35.9137354 281.239746,36.2392578 C281.817548,36.5647803 282.627273,36.7438149 283.668945,36.7763672 L293.385742,37.1914062 C294.931974,37.2565107 296.221837,37.4396144 297.255371,37.7407227 C298.288905,38.0418309 299.114906,38.44059 299.733398,38.9370117 C300.351891,39.4334335 300.787271,40.031572 301.039551,40.7314453 C301.291831,41.4313186 301.417969,42.2044229 301.417969,43.0507812 C301.417969,44.5807368 301.063968,45.9641865 300.355957,47.2011719 C299.647946,48.4381572 298.622565,49.4920204 297.279785,50.362793 C295.937005,51.2335656 294.305348,51.9049456 292.384766,52.3769531 C290.464183,52.8489607 288.291353,53.0849609 285.866211,53.0849609 C281.536762,53.0849609 278.301931,52.5966846 276.161621,51.6201172 C274.021311,50.6435498 272.951172,49.3496174 272.951172,47.7382812 C272.951172,47.0221318 273.130207,46.330407 273.488281,45.6630859 C273.846356,44.9957649 274.30615,44.3569366 274.867676,43.746582 C275.429202,43.1362274 276.051754,42.5502958 276.735352,41.9887695 C277.418949,41.4272433 278.094398,40.8860703 278.761719,40.3652344 C278.273435,40.2187493 277.821779,40.0397146 277.406738,39.828125 C276.991697,39.6165354 276.633628,39.3764662 276.33252,39.1079102 C276.031411,38.8393541 275.791342,38.5463883 275.612305,38.2290039 C275.433267,37.9116195 275.34375,37.5657571 275.34375,37.1914062 C275.34375,36.6542942 275.482095,36.1049833 275.758789,35.543457 C276.035483,34.9819308 276.417966,34.4407578 276.90625,33.9199219 C277.394534,33.3990859 277.96012,32.9230165 278.603027,32.4916992 C279.245934,32.060382 279.93359,31.7063816 280.666016,31.4296875 C278.891918,30.6809858 277.508469,29.6352606 276.515625,28.2924805 C275.522781,26.9497003 275.026367,25.4075608 275.026367,23.6660156 C275.026367,22.3802019 275.323402,21.16358 275.91748,20.0161133 C276.511559,18.8686466 277.325353,17.8676801 278.358887,17.0131836 C279.392421,16.1586871 280.613111,15.4832382 282.020996,14.9868164 C283.428881,14.4903947 284.938469,14.2421875 286.549805,14.2421875 C287.331059,14.2421875 288.104163,14.2950841 288.869141,14.4008789 C289.634118,14.5066737 290.346188,14.6450187 291.005371,14.815918 C291.664554,14.9868173 292.250486,15.1861968 292.763184,15.4140625 C293.275881,15.6419282 293.670572,15.8860664 293.947266,16.1464844 L301.417969,16.1464844 Z M280.373047,40.7802734 C279.98242,41.0732437 279.640626,41.3987612 279.347656,41.7568359 C279.054686,42.1149106 278.806479,42.4933248 278.603027,42.8920898 C278.399576,43.2908549 278.244955,43.6896139 278.13916,44.0883789 C278.033365,44.4871439 277.980469,44.8655581 277.980469,45.2236328 C277.980469,45.8095732 278.187986,46.3710911 278.603027,46.9082031 C279.018068,47.4453152 279.636552,47.9173157 280.458496,48.3242188 C281.28044,48.7311218 282.30989,49.0566394 283.546875,49.3007812 C284.78386,49.5449231 286.224276,49.6669922 287.868164,49.6669922 C289.609709,49.6669922 291.172194,49.5286472 292.555664,49.2519531 C293.939135,48.975259 295.110998,48.6090518 296.071289,48.1533203 C297.03158,47.6975889 297.763995,47.1889677 298.268555,46.6274414 C298.773115,46.0659152 299.025391,45.5003284 299.025391,44.9306641 C299.025391,43.7587832 298.443528,42.9042996 297.279785,42.3671875 C296.116042,41.8300754 294.525075,41.5615234 292.506836,41.5615234 C291.253574,41.5615234 289.984056,41.5330406 288.698242,41.4760742 C287.412428,41.4191078 286.212082,41.3499353 285.097168,41.2685547 C283.982254,41.1871741 283.005701,41.1017257 282.16748,41.012207 C281.32926,40.9226884 280.731122,40.8453779 280.373047,40.7802734 Z M286.867188,31.1367188 C287.599613,31.1367188 288.307614,30.969891 288.991211,30.6362305 C289.674808,30.3025699 290.277016,29.8427764 290.797852,29.2568359 C291.318688,28.6708955 291.733722,27.9873086 292.042969,27.2060547 C292.352215,26.4248008 292.506836,25.586593 292.506836,24.6914062 C292.506836,23.4055925 292.33187,22.2133844 291.981934,21.1147461 C291.631997,20.0161078 291.155927,19.0598999 290.553711,18.2460938 C289.951494,17.4322876 289.251632,16.7934594 288.454102,16.3295898 C287.656572,15.8657203 286.810226,15.6337891 285.915039,15.6337891 C285.036128,15.6337891 284.275231,15.8168927 283.632324,16.1831055 C282.989417,16.5493182 282.460451,17.0498015 282.04541,17.6845703 C281.630369,18.3193391 281.325196,19.0680295 281.129883,19.9306641 C280.934569,20.7932986 280.836914,21.7210237 280.836914,22.7138672 C280.836914,23.9020242 280.983397,25.0087839 281.276367,26.0341797 C281.569337,27.0595754 281.980303,27.9506798 282.509277,28.7075195 C283.038251,29.4643593 283.673011,30.0584288 284.413574,30.4897461 C285.154138,30.9210634 285.972001,31.1367188 286.867188,31.1367188 Z M318.825195,41.5615234 C316.823232,41.5615234 314.971851,41.211592 313.270996,40.5117188 C311.570141,39.8118455 310.105312,38.8597065 308.876465,37.6552734 C307.647618,36.4508403 306.687341,35.0389078 305.995605,33.4194336 C305.30387,31.7999594 304.958008,30.0706472 304.958008,28.2314453 C304.958008,26.2945867 305.30387,24.4757572 305.995605,22.7749023 C306.687341,21.0740475 307.647618,19.5929425 308.876465,18.331543 C310.105312,17.0701434 311.570141,16.0732458 313.270996,15.3408203 C314.971851,14.6083948 316.823232,14.2421875 318.825195,14.2421875 C320.827158,14.2421875 322.670402,14.575843 324.35498,15.2431641 C326.039559,15.9104851 327.500319,16.8260033 328.737305,17.9897461 C329.97429,19.1534889 330.938636,20.5206627 331.630371,22.0913086 C332.322106,23.6619545 332.667969,25.342439 332.667969,27.1328125 C332.667969,29.1184995 332.322106,30.9861566 331.630371,32.7358398 C330.938636,34.4855231 329.97429,36.0154557 328.737305,37.3256836 C327.500319,38.6359115 326.039559,39.6694298 324.35498,40.4262695 C322.670402,41.1831093 320.827158,41.5615234 318.825195,41.5615234 Z M319.801758,39.6328125 C320.827154,39.6328125 321.767086,39.3683295 322.621582,38.8393555 C323.476078,38.3103815 324.216631,37.6023807 324.843262,36.715332 C325.469892,35.8282833 325.9541,34.790696 326.295898,33.6025391 C326.637697,32.4143821 326.808594,31.1611394 326.808594,29.8427734 C326.808594,27.938467 326.645835,26.1603273 326.320312,24.5083008 C325.99479,22.8562743 325.465824,21.41179 324.733398,20.1748047 C324.000973,18.9378193 323.048834,17.9653356 321.876953,17.2573242 C320.705072,16.5493129 319.264657,16.1953125 317.555664,16.1953125 C316.676753,16.1953125 315.830408,16.4475886 315.016602,16.9521484 C314.202795,17.4567083 313.482588,18.1484331 312.855957,19.0273438 C312.229326,19.9062544 311.728843,20.9316348 311.354492,22.1035156 C310.980141,23.2753965 310.792969,24.5205012 310.792969,25.8388672 C310.792969,27.7431736 310.996417,29.5335203 311.40332,31.2099609 C311.810223,32.8864016 312.396155,34.3471617 313.161133,35.5922852 C313.926111,36.8374086 314.870112,37.8220992 315.993164,38.5463867 C317.116217,39.2706742 318.385735,39.6328125 319.801758,39.6328125 Z M341.09082,32.3085938 C341.00944,30.4368396 340.85075,28.5325618 340.614746,26.5957031 C340.378742,24.6588445 340.134604,22.7464287 339.882324,20.8583984 C339.630044,18.9703682 339.402182,17.1311938 339.19873,15.3408203 C338.995279,13.5504468 338.893555,11.8496174 338.893555,10.2382812 C338.893555,9.61978857 338.979003,9.06233972 339.149902,8.56591797 C339.320802,8.06949622 339.544595,7.64632336 339.821289,7.29638672 C340.097983,6.94645007 340.419432,6.67789807 340.785645,6.49072266 C341.151857,6.30354724 341.522134,6.20996094 341.896484,6.20996094 C342.742843,6.20996094 343.454912,6.56803027 344.032715,7.28417969 C344.610517,8.0003291 344.899414,8.98501978 344.899414,10.2382812 C344.899414,11.8496174 344.79769,13.5504468 344.594238,15.3408203 C344.390787,17.1311938 344.158855,18.9703682 343.898438,20.8583984 C343.63802,22.7464287 343.385743,24.6588445 343.141602,26.5957031 C342.89746,28.5325618 342.742839,30.4368396 342.677734,32.3085938 L341.09082,32.3085938 Z M341.896484,36.4101562 C342.287111,36.4101562 342.64925,36.4793287 342.98291,36.6176758 C343.316571,36.7560228 343.609536,36.9472644 343.861816,37.1914062 C344.114096,37.4355481 344.313476,37.720376 344.459961,38.0458984 C344.606446,38.3714209 344.679688,38.7213523 344.679688,39.0957031 C344.679688,39.470054 344.606446,39.8240543 344.459961,40.1577148 C344.313476,40.4913754 344.114096,40.7802722 343.861816,41.0244141 C343.609536,41.2685559 343.316571,41.4597975 342.98291,41.5981445 C342.64925,41.7364916 342.287111,41.8056641 341.896484,41.8056641 C341.505857,41.8056641 341.13965,41.7364916 340.797852,41.5981445 C340.456053,41.4597975 340.159018,41.2685559 339.906738,41.0244141 C339.654458,40.7802722 339.455079,40.4913754 339.308594,40.1577148 C339.162109,39.8240543 339.088867,39.470054 339.088867,39.0957031 C339.088867,38.7213523 339.162109,38.3714209 339.308594,38.0458984 C339.455079,37.720376 339.654458,37.4355481 339.906738,37.1914062 C340.159018,36.9472644 340.456053,36.7560228 340.797852,36.6176758 C341.13965,36.4793287 341.505857,36.4101562 341.896484,36.4101562 Z" id="Hello,-I’m-logo!-copy" fill="#000000" sketch:type="MSShapeGroup"></path>
    </g>
</svg>