<?xml version="1.0" encoding="UTF-8" standalone="no"?>
<svg width="295px" height="46px" viewBox="0 0 295 46" version="1.1" xmlns="http://www.w3.org/2000/svg" xmlns:xlink="http://www.w3.org/1999/xlink" xmlns:sketch="http://www.bohemiancoding.com/sketch/ns">
    <title>hello-logo</title>
    <description>Created with Sketch (http://www.bohemiancoding.com/sketch)</description>
    <defs></defs>
    <g id="Page-2" stroke="none" stroke-width="1" fill="none" fill-rule="evenodd" sketch:type="MSPage">
        <path d="M6.14263084,21.2484959 L6.14263084,35.1513741 L1.27246094,35.1513741 L1.27246094,6.15929433 L6.14263084,6.15929433 L6.14263084,19.3753537 L20.7115152,19.3753537 L20.7115152,6.15929433 L25.5816851,6.15929433 L25.5816851,35.1513741 L20.7115152,35.1513741 L20.7115152,21.2484959 L6.14263084,21.2484959 Z M41.732334,35.630066 C40.2199375,35.630066 38.8012198,35.3456288 37.4761385,34.7767457 C36.1510571,34.2078626 34.9924955,33.4343319 34.0004189,32.4561305 C33.0083423,31.4779291 32.2244054,30.3332425 31.6485848,29.0220364 C31.0727641,27.7108302 30.784858,26.3059876 30.784858,24.8074663 C30.784858,23.0175658 31.0484828,21.3595046 31.5757403,19.8332329 C32.1029978,18.3069612 32.8453097,16.9888372 33.8026984,15.8788214 C34.760087,14.7688057 35.9151798,13.9016188 37.2680116,13.277235 C38.6208433,12.6528511 40.1228109,12.3406638 41.7739594,12.3406638 C43.2447303,12.3406638 44.5906042,12.5973511 45.8116216,13.1107334 C47.0326389,13.6241157 48.0802006,14.3143964 48.9543381,15.1815963 C49.8284755,16.0487961 50.50835,17.0512641 50.9939819,18.1890302 C51.4796138,19.3267964 51.7224261,20.5200455 51.7224261,21.7688132 L35.0514599,21.7688132 C35.0514599,23.2673346 35.2457097,24.6583022 35.6342152,25.941758 C36.0227208,27.2252137 36.5638453,28.3317441 37.2576052,29.2613823 C37.9513651,30.1910205 38.7838644,30.9194575 39.7551282,31.446715 C40.7263921,31.9739725 41.7878287,32.2375973 42.9394701,32.2375973 C43.9107339,32.2375973 44.8403582,32.0815036 45.7283708,31.7693117 C46.6163834,31.4571198 47.4211328,31.0478076 48.1426431,30.5413629 C48.8641533,30.0349182 49.4781216,29.4521686 49.9845663,28.7930968 C50.491011,28.1340249 50.848292,27.4576192 51.0564199,26.7638593 L52.3259941,27.325802 C52.0068646,28.4774434 51.4900213,29.5562238 50.7754486,30.5621756 C50.0608759,31.5681274 49.2283766,32.4457204 48.2779256,33.1949811 C47.3274746,33.9442417 46.2868504,34.5373975 45.1560218,34.9744662 C44.0251932,35.411535 42.8839753,35.630066 41.732334,35.630066 Z M46.1654373,19.9789217 C46.1654373,19.1325347 46.0162812,18.3451291 45.7179645,17.6166812 C45.4196477,16.8882334 45.0103355,16.2569213 44.4900156,15.7227262 C43.9696957,15.1885312 43.3591962,14.7688127 42.6584988,14.4635584 C41.9578013,14.158304 41.2050831,14.0056792 40.4003217,14.0056792 C39.7343122,14.0056792 39.092594,14.158304 38.4751477,14.4635584 C37.8577014,14.7688127 37.3096393,15.1850624 36.830945,15.7123199 C36.3522507,16.2395774 35.9568135,16.8674207 35.6446216,17.5958685 C35.3324297,18.3243164 35.1416486,19.111722 35.0722726,19.958109 L46.1654373,19.9789217 Z M61.1297628,35.1513741 L56.6966594,35.1513741 L56.6966594,2.62113671 L59.8601886,1.3515625 L61.1297628,1.3515625 L61.1297628,35.1513741 Z M71.182293,35.1513741 L66.7491896,35.1513741 L66.7491896,2.62113671 L69.9127188,1.3515625 L71.182293,1.3515625 L71.182293,35.1513741 Z M87.4786307,35.630066 C85.7719815,35.630066 84.1937015,35.3317538 82.7437433,34.7351203 C81.2937852,34.1384868 80.0450362,33.3267999 78.9974588,32.3000353 C77.9498814,31.2732707 77.131257,30.0696154 76.5415612,28.6890333 C75.9518653,27.3084512 75.6570218,25.8342336 75.6570218,24.2663363 C75.6570218,22.6151878 75.9518653,21.0646578 76.5415612,19.6146996 C77.131257,18.1647415 77.9498814,16.9021175 78.9974588,15.8267897 C80.0450362,14.7514619 81.2937852,13.9016188 82.7437433,13.277235 C84.1937015,12.6528511 85.7719815,12.3406638 87.4786307,12.3406638 C89.18528,12.3406638 90.7566225,12.6251011 92.1927055,13.1939842 C93.6287884,13.7628673 94.8740687,14.5433354 95.9285837,15.535412 C96.9830986,16.5274886 97.8051918,17.6929877 98.3948876,19.0319443 C98.9845835,20.3709008 99.279427,21.8034934 99.279427,23.3297651 C99.279427,25.0225392 98.9845835,26.6146942 98.3948876,28.1062779 C97.8051918,29.5978616 96.9830986,30.9021106 95.9285837,32.019064 C94.8740687,33.1360174 93.6287884,34.0170792 92.1927055,34.6622759 C90.7566225,35.3074725 89.18528,35.630066 87.4786307,35.630066 Z M88.3111384,33.9858634 C89.1852759,33.9858634 89.9865565,33.7603948 90.7150043,33.3094509 C91.4434522,32.858507 92.0747642,32.254945 92.6089593,31.4987467 C93.1431544,30.7425484 93.5559353,29.8580179 93.8473145,28.8451285 C94.1386936,27.8322391 94.284381,26.7638649 94.284381,25.6399739 C94.284381,24.0165759 94.1456311,22.5007333 93.8681272,21.0924008 C93.5906232,19.6840682 93.1396861,18.4526629 92.5153022,17.3981479 C91.8909183,16.343633 91.0792314,15.5146023 90.0802172,14.9110313 C89.081203,14.3074602 87.8532665,14.0056792 86.3963708,14.0056792 C85.6471101,14.0056792 84.9256107,14.2207415 84.2318508,14.6508726 C83.5380909,15.0810037 82.9241227,15.6706908 82.3899276,16.4199514 C81.8557325,17.1692121 81.4290766,18.0433364 81.109947,19.0423506 C80.7908175,20.0413648 80.6312551,21.1028015 80.6312551,22.2266925 C80.6312551,23.8500905 80.8046925,25.3763394 81.1515724,26.8054847 C81.4984523,28.23463 81.997952,29.4799103 82.6500862,30.5413629 C83.3022205,31.6028155 84.1069699,32.4422523 85.0643585,33.0596986 C86.0217471,33.6771449 87.1039963,33.9858634 88.3111384,33.9858634 Z M101.069319,41.2911182 C101.735328,41.1107407 102.356234,40.8505846 102.932054,40.5106423 C103.507875,40.1707 104.010844,39.7822003 104.440975,39.3451315 C104.871106,38.9080628 105.211043,38.4328445 105.460797,37.9194622 C105.71055,37.4060799 105.835425,36.8788303 105.835425,36.3376976 C105.835425,36.018568 105.772988,35.7410682 105.648111,35.5051899 C105.523234,35.2693115 105.363672,35.1513741 105.169419,35.1513741 C104.989041,35.1513741 104.836416,35.1860616 104.71154,35.2554376 C104.586663,35.3248136 104.458319,35.4045948 104.326505,35.4947835 C104.19469,35.5849723 104.045534,35.6647535 103.879032,35.7341295 C103.71253,35.8035055 103.49053,35.838193 103.213026,35.838193 C102.921647,35.838193 102.647616,35.7757555 102.390924,35.6508787 C102.134233,35.526002 101.905296,35.3525646 101.704106,35.1305614 C101.502915,34.9085583 101.346822,34.6484022 101.23582,34.3500855 C101.124819,34.0517687 101.069319,33.7222378 101.069319,33.3614826 C101.069319,32.9868523 101.145631,32.6399776 101.298258,32.320848 C101.450885,32.0017185 101.662479,31.72075 101.933045,31.477934 C102.203612,31.2351181 102.519268,31.0478057 102.880023,30.9159913 C103.240778,30.784177 103.629278,30.7182708 104.045533,30.7182708 C104.586666,30.7182708 105.089635,30.8362082 105.554454,31.0720865 C106.019273,31.3079649 106.425116,31.6340271 106.771996,32.050283 C107.118876,32.466539 107.392907,32.9521636 107.594097,33.5071715 C107.795288,34.0621794 107.895881,34.6518664 107.895881,35.2762503 C107.895881,36.2613893 107.712038,37.1702011 107.344345,38.0027129 C106.976652,38.8352248 106.480622,39.5601929 105.856238,40.1776392 C105.231854,40.7950855 104.506886,41.2911164 103.681311,41.6657467 C102.855737,42.040377 101.985082,42.2554393 101.069319,42.3109401 L101.069319,41.2911182 Z M124.379533,6.15929433 L129.249703,6.15929433 L129.249703,35.1513741 L124.379533,35.1513741 L124.379533,6.15929433 Z M134.452876,14.6508726 C135.118886,14.4704951 135.739792,14.210339 136.315612,13.8703967 C136.891433,13.5304543 137.394401,13.1419546 137.824532,12.7048859 C138.254664,12.2678172 138.594601,11.7925988 138.844354,11.2792165 C139.094108,10.7658342 139.218983,10.2385846 139.218983,9.69745195 C139.218983,9.37832241 139.156545,9.10082263 139.031669,8.86494427 C138.906792,8.62906592 138.747229,8.51112851 138.552977,8.51112851 C138.372599,8.51112851 138.219974,8.54581598 138.095097,8.61519197 C137.970221,8.68456796 137.841877,8.76434914 137.710063,8.85453793 C137.578248,8.94472671 137.429092,9.0245079 137.26259,9.09388388 C137.096087,9.16325987 136.874088,9.19794734 136.596584,9.19794734 C136.305204,9.19794734 136.031173,9.13550989 135.774482,9.01063312 C135.517791,8.88575634 135.288854,8.71231898 135.087663,8.49031582 C134.886473,8.26831266 134.730379,8.00815661 134.619378,7.70983987 C134.508376,7.41152313 134.452876,7.08199214 134.452876,6.72123701 C134.452876,6.34660668 134.529189,5.99973195 134.681816,5.68060241 C134.834443,5.36147288 135.046037,5.08050434 135.316603,4.83768839 C135.587169,4.59487244 135.902825,4.40756008 136.263581,4.27574571 C136.624336,4.14393134 137.012835,4.07802514 137.429091,4.07802514 C137.970224,4.07802514 138.473192,4.19596255 138.938011,4.4318409 C139.402831,4.66771925 139.808674,4.9937815 140.155554,5.41003742 C140.502434,5.82629334 140.776465,6.31191796 140.977655,6.86692585 C141.178846,7.42193374 141.279439,8.01162078 141.279439,8.63600466 C141.279439,9.62114367 141.095596,10.5299555 140.727903,11.3624673 C140.36021,12.1949791 139.864179,12.9199473 139.239795,13.5373936 C138.615412,14.1548399 137.890443,14.6508707 137.064869,15.0255011 C136.239295,15.4001314 135.368639,15.6151937 134.452876,15.6706945 L134.452876,14.6508726 Z M145.441978,12.798543 L149.875081,12.798543 L149.875081,16.9818941 C150.443964,16.3575102 151.085682,15.7678232 151.800255,15.2128153 C152.514828,14.6578074 153.250202,14.1652453 154.0064,13.7351142 C154.762599,13.3049831 155.522254,12.9650458 156.28539,12.7152923 C157.048526,12.4655387 157.770025,12.3406638 158.44991,12.3406638 C159.11592,12.3406638 159.785388,12.4586012 160.458335,12.6944796 C161.131282,12.9303579 161.755656,13.2598889 162.331477,13.6830824 C162.907298,14.106276 163.403329,14.6057756 163.819585,15.1815963 C164.235841,15.7574169 164.506403,16.3852602 164.63128,17.0651449 C165.00591,16.4130106 165.515816,15.7990423 166.161012,15.2232216 C166.806209,14.647401 167.52424,14.1479013 168.315126,13.7247078 C169.106012,13.3015143 169.938512,12.9650458 170.812649,12.7152923 C171.686787,12.4655387 172.547036,12.3406638 173.393423,12.3406638 C174.23981,12.3406638 175.034153,12.5279762 175.776476,12.9026065 C176.518799,13.2772368 177.167455,13.7802052 177.722463,14.4115267 C178.277471,15.0428481 178.714533,15.7851601 179.033662,16.6384847 C179.352792,17.4918093 179.512354,18.3971524 179.512354,19.354541 L179.512354,35.1513741 L175.058438,35.1513741 L175.058438,19.9997344 C175.058438,19.3753506 174.950907,18.7821948 174.735841,18.2202493 C174.520776,17.6583038 174.23287,17.1657417 173.872115,16.7425482 C173.51136,16.3193546 173.088172,15.9828861 172.602541,15.7331326 C172.116909,15.483379 171.603534,15.3585041 171.062401,15.3585041 C170.451893,15.3585041 169.830987,15.4417541 169.199665,15.6082564 C168.568344,15.7747588 167.968251,16.0036961 167.399368,16.2950753 C166.830485,16.5864544 166.310172,16.9263917 165.838416,17.3148972 C165.366659,17.7034027 164.992034,18.1127149 164.71453,18.542846 L164.71453,35.1513741 L160.281427,35.1513741 L160.281427,19.9997344 C160.281427,19.3753506 160.173896,18.7821948 159.95883,18.2202493 C159.743765,17.6583038 159.448921,17.1657417 159.074291,16.7425482 C158.699661,16.3193546 158.269536,15.9828861 157.783904,15.7331326 C157.298272,15.483379 156.784897,15.3585041 156.243765,15.3585041 C155.674882,15.3585041 155.088663,15.4452228 154.485092,15.6186628 C153.881521,15.7921028 153.291834,16.0245088 152.716013,16.315888 C152.140193,16.6072671 151.606006,16.9437356 151.113436,17.3253035 C150.620867,17.7068715 150.208086,18.1127149 149.875081,18.542846 L149.875081,35.1513741 L145.441978,35.1513741 L145.441978,12.798543 Z M201.740309,35.1513741 L197.307206,35.1513741 L197.307206,2.62113671 L200.470735,1.3515625 L201.740309,1.3515625 L201.740309,35.1513741 Z M218.036647,35.630066 C216.329998,35.630066 214.751718,35.3317538 213.30176,34.7351203 C211.851801,34.1384868 210.603052,33.3267999 209.555475,32.3000353 C208.507898,31.2732707 207.689273,30.0696154 207.099577,28.6890333 C206.509881,27.3084512 206.215038,25.8342336 206.215038,24.2663363 C206.215038,22.6151878 206.509881,21.0646578 207.099577,19.6146996 C207.689273,18.1647415 208.507898,16.9021175 209.555475,15.8267897 C210.603052,14.7514619 211.851801,13.9016188 213.30176,13.277235 C214.751718,12.6528511 216.329998,12.3406638 218.036647,12.3406638 C219.743296,12.3406638 221.314639,12.6251011 222.750722,13.1939842 C224.186805,13.7628673 225.432085,14.5433354 226.4866,15.535412 C227.541115,16.5274886 228.363208,17.6929877 228.952904,19.0319443 C229.5426,20.3709008 229.837443,21.8034934 229.837443,23.3297651 C229.837443,25.0225392 229.5426,26.6146942 228.952904,28.1062779 C228.363208,29.5978616 227.541115,30.9021106 226.4866,32.019064 C225.432085,33.1360174 224.186805,34.0170792 222.750722,34.6622759 C221.314639,35.3074725 219.743296,35.630066 218.036647,35.630066 Z M218.869155,33.9858634 C219.743292,33.9858634 220.544573,33.7603948 221.273021,33.3094509 C222.001468,32.858507 222.63278,32.254945 223.166976,31.4987467 C223.701171,30.7425484 224.113952,29.8580179 224.405331,28.8451285 C224.69671,27.8322391 224.842397,26.7638649 224.842397,25.6399739 C224.842397,24.0165759 224.703647,22.5007333 224.426143,21.0924008 C224.148639,19.6840682 223.697702,18.4526629 223.073318,17.3981479 C222.448935,16.343633 221.637248,15.5146023 220.638233,14.9110313 C219.639219,14.3074602 218.411283,14.0056792 216.954387,14.0056792 C216.205126,14.0056792 215.483627,14.2207415 214.789867,14.6508726 C214.096107,15.0810037 213.482139,15.6706908 212.947944,16.4199514 C212.413749,17.1692121 211.987093,18.0433364 211.667963,19.0423506 C211.348834,20.0413648 211.189271,21.1028015 211.189271,22.2266925 C211.189271,23.8500905 211.362709,25.3763394 211.709589,26.8054847 C212.056469,28.23463 212.555968,29.4799103 213.208102,30.5413629 C213.860237,31.6028155 214.664986,32.4422523 215.622375,33.0596986 C216.579763,33.6771449 217.662012,33.9858634 218.869155,33.9858634 Z M256.290375,13.9640538 L256.290375,15.8163834 L252.044586,15.8163834 C252.488592,16.426892 252.842404,17.1102353 253.106033,17.8664335 C253.369662,18.6226318 253.501474,19.3753499 253.501474,20.1246106 C253.501474,21.2901272 253.244787,22.3480951 252.731404,23.2985461 C252.218022,24.2489971 251.50346,25.0676215 250.587697,25.7544437 C249.671934,26.441266 248.579279,26.9719843 247.309698,27.3466147 C246.040118,27.721245 244.642212,27.9085574 243.115941,27.9085574 C242.560933,27.9085574 241.98859,27.8599949 241.398894,27.7628685 C240.809198,27.6657421 240.299292,27.5478047 239.869161,27.4090527 C239.43903,27.7559327 239.07828,28.1583074 238.786901,28.6161889 C238.495522,29.0740704 238.349834,29.5388825 238.349834,30.0106392 C238.349834,30.4546455 238.596115,30.8153953 239.088685,31.0928992 C239.581254,31.3704032 240.271535,31.523028 241.159548,31.5507784 L249.442999,31.9045942 C250.761143,31.960095 251.860736,32.1161886 252.741811,32.3728798 C253.622886,32.6295709 254.327041,32.9695081 254.854299,33.3927017 C255.381556,33.8158952 255.752712,34.325801 255.967778,34.9224345 C256.182843,35.519068 256.290375,36.17813 256.290375,36.8996402 C256.290375,38.2039088 255.988594,39.3832829 255.385023,40.4377979 C254.781451,41.4923129 253.907327,42.3907184 252.762623,43.1330415 C251.61792,43.8753645 250.226952,44.4477078 248.589679,44.8500885 C246.952405,45.2524693 245.100094,45.4536566 243.03269,45.4536566 C239.341887,45.4536566 236.584233,45.0374069 234.759645,44.2048951 C232.935056,43.3723833 232.022776,42.2693216 232.022776,40.8956771 C232.022776,40.2851684 232.175401,39.6954814 232.480655,39.1265983 C232.785909,38.5577152 233.177878,38.0131219 233.656572,37.492802 C234.135267,36.9724821 234.665985,36.4729825 235.248743,35.9942882 C235.831501,35.5155938 236.407314,35.0542505 236.976197,34.6102441 C236.559941,34.4853674 236.17491,34.3327425 235.821092,34.1523649 C235.467275,33.9719874 235.162025,33.7673313 234.905334,33.5383905 C234.648643,33.3094498 234.443987,33.0596999 234.291359,32.7891336 C234.138732,32.5185673 234.06242,32.2237237 234.06242,31.9045942 C234.06242,31.4467127 234.180357,30.9784318 234.416235,30.4997375 C234.652114,30.0210432 234.978176,29.5596998 235.394432,29.1156935 C235.810688,28.6716872 236.292844,28.2658437 236.840914,27.898151 C237.388984,27.5304583 237.975203,27.2286773 238.599587,26.9927989 C237.08719,26.3545398 235.907816,25.4630718 235.061429,24.318368 C234.215042,23.1736642 233.791855,21.859009 233.791855,20.3743629 C233.791855,19.2782223 234.045073,18.2410669 234.551518,17.2628654 C235.057963,16.284664 235.751712,15.4313522 236.632787,14.7029043 C237.513862,13.9744565 238.554486,13.3986444 239.754691,12.9754509 C240.954896,12.5522574 242.241801,12.3406638 243.615445,12.3406638 C244.281455,12.3406638 244.940517,12.3857575 245.592651,12.4759463 C246.244785,12.5661351 246.851816,12.6840725 247.413762,12.8297621 C247.975707,12.9754516 248.475207,13.1454203 248.912275,13.339673 C249.349344,13.5339258 249.685813,13.7420506 249.921691,13.9640538 L256.290375,13.9640538 Z M238.349834,34.9640599 C238.01683,35.2138135 237.725455,35.4913132 237.475701,35.7965676 C237.225948,36.1018219 237.014354,36.4244154 236.840914,36.7643578 C236.667474,37.1043001 236.535662,37.4442373 236.445473,37.7841797 C236.355284,38.124122 236.31019,38.4467155 236.31019,38.7519698 C236.31019,39.2514769 236.487097,39.7301641 236.840914,40.1880456 C237.194732,40.6459271 237.721981,41.0483018 238.422679,41.3951817 C239.123376,41.7420616 240.000969,42.0195614 241.055484,42.2276894 C242.109999,42.4358173 243.337936,42.5398797 244.739331,42.5398797 C246.223977,42.5398797 247.555976,42.4219423 248.735368,42.186064 C249.914759,41.9501856 250.913758,41.6379984 251.732395,41.2494929 C252.551032,40.8609873 253.175406,40.4273939 253.605537,39.9486996 C254.035669,39.4700053 254.250731,38.9878494 254.250731,38.5022175 C254.250731,37.5032033 253.7547,36.7747664 252.762623,36.3168849 C251.770547,35.8590034 250.414267,35.630066 248.693742,35.630066 C247.625352,35.630066 246.543103,35.6057848 245.446962,35.5572216 C244.350822,35.5086584 243.327541,35.4496897 242.37709,35.3803137 C241.426639,35.3109378 240.59414,35.2380941 239.879567,35.1617805 C239.164994,35.0854669 238.655089,35.0195607 238.349834,34.9640599 Z M243.88601,26.7430466 C244.510394,26.7430466 245.113956,26.600828 245.696714,26.3163864 C246.279473,26.0319449 246.792847,25.6399764 247.236854,25.1404693 C247.68086,24.6409622 248.034672,24.0582127 248.298301,23.3922032 C248.56193,22.7261937 248.693742,22.0116318 248.693742,21.2484959 C248.693742,20.1523554 248.544586,19.1360124 248.246269,18.1994366 C247.947953,17.2628608 247.542109,16.4477052 247.028727,15.7539453 C246.515344,15.0601854 245.91872,14.5155921 245.238835,14.120149 C244.558951,13.7247059 243.837451,13.5269873 243.074315,13.5269873 C242.325055,13.5269873 241.676399,13.6830809 241.128329,13.9952728 C240.580258,14.3074648 240.129321,14.7341207 239.775504,15.2752534 C239.421686,15.8163861 239.16153,16.4546356 238.995028,17.190021 C238.828525,17.9254065 238.745275,18.7162809 238.745275,19.5626679 C238.745275,20.5755573 238.87015,21.5190566 239.119904,22.393194 C239.369657,23.2673314 239.720001,24.0269871 240.170945,24.6721838 C240.621889,25.3173804 241.163013,25.8238175 241.794335,26.1915103 C242.425656,26.559203 243.122874,26.7430466 243.88601,26.7430466 Z M271.129824,35.630066 C269.423175,35.630066 267.844895,35.3317538 266.394937,34.7351203 C264.944978,34.1384868 263.696229,33.3267999 262.648652,32.3000353 C261.601075,31.2732707 260.78245,30.0696154 260.192754,28.6890333 C259.603059,27.3084512 259.308215,25.8342336 259.308215,24.2663363 C259.308215,22.6151878 259.603059,21.0646578 260.192754,19.6146996 C260.78245,18.1647415 261.601075,16.9021175 262.648652,15.8267897 C263.696229,14.7514619 264.944978,13.9016188 266.394937,13.277235 C267.844895,12.6528511 269.423175,12.3406638 271.129824,12.3406638 C272.836473,12.3406638 274.407816,12.6251011 275.843899,13.1939842 C277.279982,13.7628673 278.525262,14.5433354 279.579777,15.535412 C280.634292,16.5274886 281.456385,17.6929877 282.046081,19.0319443 C282.635777,20.3709008 282.93062,21.8034934 282.93062,23.3297651 C282.93062,25.0225392 282.635777,26.6146942 282.046081,28.1062779 C281.456385,29.5978616 280.634292,30.9021106 279.579777,32.019064 C278.525262,33.1360174 277.279982,34.0170792 275.843899,34.6622759 C274.407816,35.3074725 272.836473,35.630066 271.129824,35.630066 Z M271.962332,33.9858634 C272.836469,33.9858634 273.63775,33.7603948 274.366198,33.3094509 C275.094645,32.858507 275.725957,32.254945 276.260153,31.4987467 C276.794348,30.7425484 277.207129,29.8580179 277.498508,28.8451285 C277.789887,27.8322391 277.935574,26.7638649 277.935574,25.6399739 C277.935574,24.0165759 277.796824,22.5007333 277.51932,21.0924008 C277.241816,19.6840682 276.790879,18.4526629 276.166495,17.3981479 C275.542112,16.343633 274.730425,15.5146023 273.73141,14.9110313 C272.732396,14.3074602 271.50446,14.0056792 270.047564,14.0056792 C269.298303,14.0056792 268.576804,14.2207415 267.883044,14.6508726 C267.189284,15.0810037 266.575316,15.6706908 266.041121,16.4199514 C265.506926,17.1692121 265.08027,18.0433364 264.76114,19.0423506 C264.442011,20.0413648 264.282448,21.1028015 264.282448,22.2266925 C264.282448,23.8500905 264.455886,25.3763394 264.802766,26.8054847 C265.149646,28.23463 265.649145,29.4799103 266.301279,30.5413629 C266.953414,31.6028155 267.758163,32.4422523 268.715552,33.0596986 C269.67294,33.6771449 270.755189,33.9858634 271.962332,33.9858634 Z M290.110999,27.7420558 C290.041623,26.1464081 289.906342,24.5230344 289.705151,22.8718859 C289.503961,21.2207374 289.295836,19.5904262 289.080771,17.9809033 C288.865705,16.3713804 288.671455,14.8035067 288.498015,13.277235 C288.324575,11.7509632 288.237857,10.3010269 288.237857,8.92738235 C288.237857,8.40012485 288.3107,7.92490647 288.45639,7.50171295 C288.60208,7.07851944 288.792861,6.71776972 289.028739,6.41945298 C289.264617,6.12113623 289.538648,5.89219891 289.85084,5.73263414 C290.163032,5.57306937 290.478688,5.49328819 290.797818,5.49328819 C291.519328,5.49328819 292.126359,5.79853795 292.618928,6.40904663 C293.111498,7.01955531 293.357779,7.85899216 293.357779,8.92738235 C293.357779,10.3010269 293.27106,11.7509632 293.09762,13.277235 C292.92418,14.8035067 292.726462,16.3713804 292.504459,17.9809033 C292.282455,19.5904262 292.067393,21.2207374 291.859265,22.8718859 C291.651137,24.5230344 291.519325,26.1464081 291.463824,27.7420558 L290.110999,27.7420558 Z M290.797818,31.2385881 C291.130823,31.2385881 291.439541,31.2975568 291.723983,31.4154959 C292.008424,31.5334351 292.258174,31.6964662 292.47324,31.9045942 C292.688305,32.1127222 292.858274,32.3555345 292.98315,32.6330384 C293.108027,32.9105424 293.170465,33.2088546 293.170465,33.5279842 C293.170465,33.8471137 293.108027,34.1488947 292.98315,34.4333363 C292.858274,34.7177778 292.688305,34.9640589 292.47324,35.1721868 C292.258174,35.3803148 292.008424,35.5433459 291.723983,35.6612851 C291.439541,35.7792243 291.130823,35.838193 290.797818,35.838193 C290.464813,35.838193 290.152626,35.7792243 289.861247,35.6612851 C289.569868,35.5433459 289.316649,35.3803148 289.101583,35.1721868 C288.886518,34.9640589 288.716549,34.7177778 288.591672,34.4333363 C288.466796,34.1488947 288.404358,33.8471137 288.404358,33.5279842 C288.404358,33.2088546 288.466796,32.9105424 288.591672,32.6330384 C288.716549,32.3555345 288.886518,32.1127222 289.101583,31.9045942 C289.316649,31.6964662 289.569868,31.5334351 289.861247,31.4154959 C290.152626,31.2975568 290.464813,31.2385881 290.797818,31.2385881 Z" id="Hello,-I’m-logo!-copy" fill="#000000" sketch:type="MSShapeGroup"></path>
    </g>
</svg>