<?xml version="1.0" encoding="UTF-8" standalone="no"?>
<svg width="190px" height="30px" viewBox="0 0 190 30" version="1.1" xmlns="http://www.w3.org/2000/svg" xmlns:xlink="http://www.w3.org/1999/xlink" xmlns:sketch="http://www.bohemiancoding.com/sketch/ns">
    <title>logo</title>
    <description>Created with Sketch (http://www.bohemiancoding.com/sketch)</description>
    <defs></defs>
    <g id="190x30" stroke="none" stroke-width="1" fill="none" fill-rule="evenodd" sketch:type="MSPage">
        <g id="logo" sketch:type="MSLayerGroup">
            <g id="Page-1" sketch:type="MSShapeGroup">
                <g id="lj-svg-logo-test">
                    <g id="Page-2-copy">
                        <g id="g10" transform="translate(95.000000, 15.000000) scale(1, -1) translate(-95.000000, -15.000000) ">
                            <path d="M15.6490562,28.1508654 C13.672751,28.1508654 11.7927811,27.7354808 10.0864056,26.99125 L7.00748996,30.09125 L7.00176707,30.09125 C3.75116466,28.6566346 1.147249,26.0172115 -0.257720884,22.7306731 L2.82501004,19.6268269 L2.82310241,19.6239423 C2.07817269,17.9008654 1.63560241,16.0239423 1.63560241,14.0249038 C1.63560241,6.22105769 7.9097992,-0.103942308 15.6490562,-0.103942308 C23.3883133,-0.103942308 29.66251,6.22105769 29.66251,14.0249038 C29.66251,21.8249038 23.3883133,28.1508654 15.6490562,28.1508654" id="path22" fill="#00B0EA"></path>
                            <path d="M14.2211948,8.15519231 C15.6261647,11.4407692 18.231988,14.0801923 21.4797289,15.5157692 L21.4816365,15.5157692 L10.0883133,26.9859615 L10.0825904,26.9859615 C6.83198795,25.5513462 4.22616466,22.9119231 2.82310241,19.6244231 L14.2211948,8.15519231 L14.2211948,8.15519231 Z" id="path26" fill="#15374C"></path>
                            <path d="M22.2969578,11.5985577 C20.4093574,10.7649038 18.8975602,9.23028846 18.0801406,7.32355769 L23.4005221,6.21298077 L22.2969578,11.5985577 L22.2969578,11.5985577 Z" id="path30" fill="#15374C"></path>
                            <path d="M22.4533835,10.8398077 L23.4005221,6.21288462 C23.4033835,6.24461538 22.931245,8.53596154 22.4533835,10.8398077" id="path34" fill="#FFFFFF"></path>
                            <path d="M22.2969578,11.5966346 C21.8696486,13.6552885 21.4823996,15.5158654 21.4823996,15.5158654 L21.4795382,15.5149038 C18.2317972,14.0793269 15.6250201,11.4408654 14.221004,8.15528846 L18.0801406,7.32355769 C18.8985141,9.22355769 20.4141265,10.7649038 22.2969578,11.5966346" id="path38" fill="#FFFFFF"></path>
                            <path d="M50.2946787,5.9625 L53.0483434,5.9625 L53.0483434,24.4846154 L50.2946787,24.4846154 L50.2946787,5.9625 L50.2946787,5.9625 Z" id="path40" fill="#FFFFFF"></path>
                            <path d="M87.459995,6.26221154 C87.459995,3.74971154 86.4928263,2.69971154 84.9695833,2.69971154 L84.9695833,0.487211538 C89.3208886,0.487211538 90.2136596,3.00067308 90.2136596,7.01221154 L90.2136596,24.4852885 L87.459995,24.4852885 L87.459995,6.26221154 L87.459995,6.26221154 Z" id="path44" fill="#FFFFFF"></path>
                            <path d="M65.0630773,15.6352885 C64.4478665,13.5795192 63.8746235,11.4574038 63.6495231,10.1449038 C63.4511295,11.4929808 62.5116215,14.0929808 62.0518825,15.6352885 L59.2610191,24.4843269 L56.6189508,24.4843269 L62.4963604,5.96221154 L64.5012801,5.96221154 L70.1907882,24.4843269 L67.7776355,24.4843269 L65.0630773,15.6352885 L65.0630773,15.6352885 Z" id="path48" fill="#FFFFFF"></path>
                            <path d="M82.6350251,8.20875 L82.6331175,8.20875 L82.6331175,8.24625 L76.088991,8.24625 L76.0966215,14.32125 L81.22624,14.32125 L81.22624,16.60875 L76.0966215,16.60875 L76.0966215,22.1981731 L82.1667018,22.1981731 L82.1667018,24.4885577 L73.3429568,24.4847115 L73.3429568,5.96259615 L82.6331175,5.95875 L82.6331175,5.96259615 L82.640748,5.96259615 L82.6350251,8.20875 L82.6350251,8.20875 Z" id="path52" fill="#FFFFFF"></path>
                            <path d="M124.031943,12.6765385 C124.031943,9.34096154 122.990377,7.80346154 120.645899,7.80346154 C118.302374,7.80346154 117.262716,9.34096154 117.262716,12.6765385 L117.262716,24.4851923 L114.510959,24.4851923 L114.510959,13.7409615 C114.510959,8.19288462 115.910206,5.47557692 120.623961,5.47557692 C125.601923,5.47557692 126.736963,8.62653846 126.736963,13.6832692 L126.736963,24.4851923 L124.031943,24.4851923 L124.031943,12.6765385 L124.031943,12.6765385 Z" id="path56" fill="#FFFFFF"></path>
                            <path d="M173.724383,12.0436538 L168.427846,12.0436538 L169.336832,14.8119231 C170.024533,16.9465385 170.788539,19.8167308 171.047023,21.1234615 C171.279754,19.8446154 172.234523,16.4869231 172.793459,14.8119231 L173.724383,12.0436538 L173.724383,12.0436538 Z M170.087485,24.4840385 L164.025035,5.96288462 L166.43628,5.96288462 L167.699132,9.82057692 L174.473128,9.82057692 L175.77127,5.96288462 L178.411431,5.96288462 L172.162987,24.4840385 L170.087485,24.4840385 L170.087485,24.4840385 Z" id="path60" fill="#FFFFFF"></path>
                            <path d="M102.546872,7.91673077 C99.4612801,7.91673077 97.7491817,10.4244231 97.7491817,14.9994231 C97.7491817,19.5725 99.4612801,22.0782692 102.546872,22.0782692 C105.633419,22.0782692 107.346471,19.5725 107.346471,14.9994231 C107.346471,10.4244231 105.633419,7.91673077 102.546872,7.91673077 M102.546872,24.4840385 C97.4878363,24.4840385 94.8095231,20.7715385 94.8095231,14.9994231 C94.8095231,9.22538462 97.4878363,5.47538462 102.546872,5.47538462 C107.604955,5.47538462 110.284222,9.22538462 110.284222,14.9994231 C110.284222,20.7715385 107.604955,24.4840385 102.546872,24.4840385" id="path64" fill="#FFFFFF"></path>
                            <path d="M136.766903,15.2240385 L135.041451,15.2240385 L135.041451,22.1461538 L136.766903,22.1461538 C139.334573,22.1461538 140.672776,20.7346154 140.672776,18.5605769 C140.672776,16.3855769 139.260176,15.2240385 136.766903,15.2240385 M143.425487,18.8230769 C143.425487,23.1346154 140.040397,24.4846154 135.503097,24.4846154 L132.283971,24.4846154 L132.283971,5.9625 L135.041451,5.9625 L135.041451,12.9307692 L136.70872,12.9307692 C137.444111,12.9307692 138.086029,12.9932692 138.086029,12.9932692 L141.380507,5.9625 L144.318258,5.9625 L140.626993,13.8528846 C142.466903,14.8269231 143.425487,16.5653846 143.425487,18.8230769" id="path68" fill="#FFFFFF"></path>
                            <path d="M158.139232,18.9960577 C158.139232,16.5960577 158.189784,12.2008654 158.305196,11.0729808 C157.80635,12.1508654 157.324674,13.1306731 156.659864,14.1777885 L150.032756,24.4845192 L148.433208,24.4845192 L148.433208,5.96240385 L150.812023,5.96240385 L150.812023,12.6393269 C150.812023,16.4431731 150.682304,18.6133654 150.571662,19.4527885 C150.868298,18.7383654 151.860266,17.02875 152.34385,16.27875 L158.958559,5.96240385 L160.521862,5.96240385 L160.521862,24.4845192 L158.139232,24.4845192 L158.139232,18.9960577 L158.139232,18.9960577 Z" id="path72" fill="#FFFFFF"></path>
                            <path d="M46.2764458,8.24634615 L40.513494,8.24634615 L40.513494,24.4848077 L37.7598293,24.4848077 L37.7598293,5.96269231 L46.2764458,5.96269231 L46.2764458,8.24634615 L46.2764458,8.24634615 Z" id="path76" fill="#FFFFFF"></path>
                            <path d="M184.658825,8.24634615 L184.658825,24.4848077 L181.906114,24.4848077 L181.906114,5.96269231 L189.962038,5.96269231 L189.962038,8.24923077 L184.658825,8.24634615 L184.658825,8.24634615 Z" id="path80" fill="#FFFFFF"></path>
                        </g>
                    </g>
                </g>
            </g>
        </g>
    </g>
</svg>