<?xml version="1.0" encoding="UTF-8" standalone="no"?>
<svg width="209px" height="177px" viewBox="0 0 209 177" version="1.1" xmlns="http://www.w3.org/2000/svg" xmlns:xlink="http://www.w3.org/1999/xlink" xmlns:sketch="http://www.bohemiancoding.com/sketch/ns">
    <title>spiral</title>
    <description>Created with Sketch (http://www.bohemiancoding.com/sketch)</description>
    <defs></defs>
    <g id="Page-1" stroke="none" stroke-width="1" fill="none" fill-rule="evenodd" sketch:type="MSPage">
        <path d="M122.750725,69.4166252 L122.753711,71.416623 L123.164624,69.4160074 L122.967928,71.4063116 L123.581214,69.4571779 L123.186801,71.4179019 L123.996292,69.5406736 L123.408104,71.4522266 L124.405576,69.6666109 L123.62949,71.5098933 L124.804743,69.8346742 L123.848513,71.5912686 L125.189476,70.0441096 L124.062656,71.6964646 L125.555505,70.2937223 L124.269354,71.8253281 L125.898655,70.581879 L124.466024,71.9774323 L126.214888,70.9065143 L124.650092,72.1520713 L126.500351,71.2651421 L124.819024,72.3482575 L126.751416,71.6548714 L124.970357,72.564723 L126.964723,72.0724263 L125.101729,72.7999233 L127.137224,72.5141712 L125.210908,73.0520446 L127.266216,72.9761394 L125.295827,73.3190151 L127.349382,73.4540663 L125.354606,73.5985182 L127.384819,73.943426 L125.385587,73.8880109 L127.37107,74.4394718 L125.387358,74.1847434 L127.307146,74.9372797 L125.358775,74.4857831 L127.192552,75.4317948 L125.298989,74.7880413 L127.027298,75.9178799 L125.207463,75.0883015 L126.811914,76.3903661 L125.08399,75.3832518 L126.547453,76.8441053 L124.928706,75.6695179 L126.235499,77.2740232 L124.742101,75.9436987 L125.878153,77.6751729 L124.525027,76.2024035 L125.478033,78.0427885 L124.278698,76.4422896 L125.038253,78.372338 L124.004693,76.6601012 L124.562404,78.659575 L123.704946,76.8527085 L124.054531,78.900589 L123.381742,77.0171464 L123.519096,79.0918527 L123.037699,77.1506527 L122.960948,79.2302672 L122.675753,77.2507057 L122.38528,79.3132037 L122.299136,77.3150597 L121.797581,79.3385405 L121.911349,77.3417789 L121.203591,79.3046972 L121.516134,77.3292689 L120.609246,79.2106626 L121.117442,77.2763055 L120.020621,79.0560187 L120.719391,77.1820602 L120.142643,76.9669996 L119.443872,78.840958 L120.326235,77.0461222 L119.767539,76.7714602 L118.885176,78.566296 L119.942315,76.8685162 L119.407804,76.5356972 L118.350664,78.233477 L119.572017,76.6497168 L119.067716,76.2608134 L117.846363,77.8445735 L119.219727,76.3906574 L118.751491,75.9483637 L117.378127,77.4022798 L118.889779,76.0927348 L118.463229,75.6003534 L116.951577,76.9098984 L118.586413,75.7578091 L118.206871,75.2192309 L116.572034,76.3713202 L118.31372,75.3881978 L117.986149,74.8078759 L116.244462,75.7909983 L118.075596,74.9866659 L117.80454,74.3695828 L115.973406,75.1739151 L117.875691,74.5564094 L117.665221,73.908038 L115.762937,74.5255437 L117.717365,74.1010345 L117.571026,73.4272937 L115.616598,73.8518029 L117.603643,73.6245318 L117.524403,72.9317359 L115.537358,73.159007 L117.537165,73.1312448 L117.527376,72.4260478 L115.527568,72.4538101 L117.520156,72.6258341 L117.58151,71.9151699 L115.588921,71.7431458 L117.554381,72.1132374 L117.687881,71.4042546 L115.722421,71.034163 L117.641114,71.5986242 L117.847049,70.8986183 L115.928356,70.3341571 L117.781112,71.0873481 L118.059036,70.40369 L116.20628,69.650499 L117.974586,70.5848941 L118.323305,69.9249565 L116.554999,68.9905615 L118.221187,70.0968245 L118.638757,69.4679064 L116.972569,68.3616434 L118.519991,69.6287209 L119.003715,69.0379713 L117.456293,67.7708938 L118.869487,69.1861256 L119.415933,68.6404666 L118.002738,67.2252348 L119.267586,68.7744804 L119.872598,68.2805315 L118.607751,66.7312859 L119.711612,68.3990658 L120.370342,67.963069 L119.266481,66.2952892 L120.198327,68.0649393 L120.905264,67.6926867 L119.973418,65.9230366 L120.723939,67.7768753 L121.472953,67.4736392 L120.722431,65.6198005 L121.284128,67.5393049 L122.068517,67.3097723 L121.506821,65.3902679 L121.874081,67.3562588 L122.686628,67.2044697 L122.319368,65.2384788 L122.488521,67.2313128 L123.321556,67.1606041 L123.152402,65.1677702 L123.121759,67.1675354 L123.967224,67.1804907 L123.997867,65.1807255 L123.767734,67.167441 L124.61726,67.2658468 L124.847393,65.2791313 L124.420069,67.2329465 L125.265054,67.4177555 L125.692379,65.4639403 L125.072133,67.3653334 L125.903825,67.6366359 L126.52407,65.7352429 L125.717101,67.5652157 L126.52668,67.9222188 L127.33365,66.092246 L126.348019,67.8325141 L127.126694,68.2735294 L128.112324,66.5332613 L126.957881,68.1664364 L127.69697,68.6888769 L128.851413,67.0557018 L127.539692,68.5654658 L128.230724,69.1658517 L129.542445,67.6560876 L128.086552,69.0273555 L128.721351,69.7013292 L130.177244,68.3300613 L128.591726,69.5491318 L129.162503,70.2914829 L130.748021,69.0724124 L129.04872,70.1271049 L129.548166,70.9318032 L131.247467,69.8771107 L129.451362,70.7568872 L129.872729,71.6171262 L131.668834,70.7373498 L129.793871,71.4334197 L130.131053,72.3416684 L132.006016,71.6455985 L130.070929,72.151007 L130.318545,73.0990701 L132.253632,72.5936615 L130.277756,72.9033588 L130.431217,73.8824454 L132.407094,73.5727482 L130.41017,73.6836397 L130.465746,74.6844399 L132.462669,74.5735484 L130.464651,74.4845262 L130.419527,75.4972942 L132.417545,75.5863163 L130.438396,75.29827 L130.290725,76.3129139 L132.269873,76.6009602 L130.329369,76.1167678 L130.078309,77.1229451 L132.018813,77.6071376 L130.136342,76.9316368 L129.782091,77.9188545 L131.664563,78.5943552 L129.858933,77.7342956 L129.402752,78.6920139 L131.208381,79.5520735 L129.497635,78.5160485 L128.941854,79.4337878 L130.6526,80.4698128 L129.05383,79.268174 L128.401853,80.1356237 L130.000623,81.3372625 L128.529804,79.9820162 L127.786098,80.7891438 L129.256917,82.1443901 L127.928745,80.6490775 L127.098818,81.3862379 L128.42699,82.8815504 L127.254736,81.2611123 L126.345106,81.9191551 L127.51736,83.5395933 L126.512736,81.8102204 L125.530885,82.3805955 L126.535509,84.1099684 L125.708553,82.2889401 L124.662874,82.7637983 L125.48983,84.5848266 L124.848805,82.690338 L123.748538,83.062628 L124.389563,84.9571165 L123.940873,83.0080968 L122.796027,83.2716551 L123.244717,85.2206748 L122.992846,83.2365979 L121.814117,83.3862328 L122.065988,85.3703097 L122.013452,83.3709998 L120.812128,83.4025665 L120.864663,85.4018764 L121.011989,83.40731 L119.799847,83.3177771 L119.652522,85.3123436 L119.998236,83.3424497 L118.787436,83.129956 L118.441722,85.0998499 L118.98237,83.174311 L117.785336,82.838211 L117.244689,84.7637499 L117.974869,82.9018054 L116.804169,82.442704 L116.073989,84.3046485 L116.986406,82.5249023 L115.854627,81.9446774 L114.942211,83.7244235 L116.027747,82.0446584 L114.947367,81.3464705 L113.861831,83.0262357 L115.109641,81.4632351 L114.092896,80.651525 L112.845087,82.2145255 L114.242702,80.7839066 L113.30146,79.8643785 L111.903845,81.2949975 L113.437302,80.0110544 L112.582928,78.9906473 L111.049472,80.2745904 L112.703448,79.150152 L111.946681,78.0369965 L110.292705,79.1614349 L112.050675,78.2077361 L111.401499,77.0110986 L109.643529,77.9647974 L111.487927,77.1913673 L110.955455,75.9215813 L109.111056,76.6950114 L111.023455,76.1095778 L110.615814,74.7779625 L108.703415,75.3633962 L110.664705,74.9718085 L110.388931,73.5905757 L108.427641,73.9821633 L110.418226,73.7883343 L110.280166,72.3704836 L108.289581,72.5643126 L110.289572,72.5701788 L110.293798,71.129383 L108.293807,71.1235168 L110.283221,71.3290197 L110.432954,69.8794999 L108.443539,69.6739969 L110.402499,70.0770832 L110.699543,68.6334761 L108.740584,68.2303899 L110.649515,68.827032 L111.09421,67.4042496 L109.185279,66.8076074 L111.025109,67.591844 L111.616289,66.2049269 L109.776459,65.4206904 L111.528804,66.3846855 L112.263779,65.0486526 L110.511434,64.0846575 L112.158786,65.2187793 L113.03333,63.9484729 L111.385978,62.8143511 L112.911877,64.1072677 L113.920241,62.9171979 L112.394342,61.6242813 L113.783541,63.0630743 L114.918473,61.9672626 L113.529274,60.5284695 L114.767893,62.0987632 L116.020679,61.110588 L114.78206,59.5402944 L115.857723,61.2263987 L117.218244,60.3584438 L116.14258,58.6723395 L117.044541,60.4574074 L118.501341,59.7213144 L117.599381,57.9362464 L118.318626,59.8024422 L119.859003,59.2087701 L119.139758,57.3425742 L119.669101,59.2712515 L121.279206,58.8293437 L120.749863,56.9006664 L121.084015,58.8725545 L122.748966,58.5904154 L122.414814,56.6185274 L122.550436,58.6139237 L124.25445,58.4981061 L124.118828,56.5027097 L124.054565,58.501677 L125.781095,58.5571813 L125.845358,56.558214 L125.581853,58.5407793 L127.313744,58.7709671 L127.577249,56.7884018 L127.117134,58.7347559 L128.836782,59.1412781 L129.296897,57.194924 L128.64477,59.0856195 L130.334292,59.6683597 L130.98642,57.7776642 L130.148796,59.59381 L131.790208,60.3508456 L132.627832,58.5346998 L131.613081,60.2581495 L133.188479,61.1857297 L134.20323,59.4622799 L133.02149,61.0758135 L134.513234,62.1683557 L135.694974,60.5548222 L134.358054,62.0423177 L135.748956,63.292423 L137.085877,61.8049276 L135.607133,63.1515224 L136.880644,64.5500094 L138.359387,63.2034146 L136.753596,64.395654 L137.893987,65.9316118 L139.499778,64.7393723 L137.782984,65.7653439 L138.775529,67.4262042 L140.492323,66.4002326 L138.681679,67.2496851 L139.512828,69.0213129 L141.323471,68.1718603 L139.43707,68.8363064 L140.094612,70.7031086 L141.981014,70.0386625 L140.037702,70.5114632 L140.510927,72.456515 L140.753268,74.265333 L140.81471,76.1123795 L140.690017,77.9796404 L140.375738,79.8484358 L139.870289,81.6995959 L139.174016,83.513647 L138.289241,85.2710049 L137.220287,86.9521749 L135.973485,88.5379548 L134.557156,90.0096411 L132.98158,91.3492347 L131.258935,92.539644 L129.403218,93.5648849 L127.430151,94.410273 L125.357059,95.0626079 L123.202729,95.5103467 L120.987257,95.7437644 L118.73187,95.7550995 L116.458736,95.5386835 L114.190759,95.0910509 L111.951363,94.4110303 L109.764258,93.4998132 L107.653207,92.3610004 L105.641782,91.000625 L103.753115,89.4271497 L102.009646,87.6514405 L100.43288,85.6867138 L99.0431386,83.5484579 L97.8593215,81.2543301 L96.8986773,78.8240276 L96.176585,76.2791353 L95.7063489,73.6429494 L95.4990108,70.9402796 L95.5631807,68.1972307 L95.904888,65.4409654 L96.5274559,62.6994505 L97.4314014,60.0011884 L98.6143606,57.3749367 L100.071042,54.849418 L101.793212,52.4530238 L103.769703,50.2135132 L105.986462,48.1577121 L108.42662,46.3112142 L111.0706,44.6980871 L113.896252,43.3405874 L116.879019,42.2588877 L119.992128,41.4708175 L123.206816,40.9916235 L126.492574,40.8337494 L129.817421,41.0066394 L133.148197,41.5165688 L136.450872,42.3665022 L139.690883,43.5559826 L142.833468,45.0810531 L145.844025,46.9342133 L148.688468,49.1044101 L151.333592,51.5770658 L153.747438,54.3341427 L155.899646,57.3542451 L157.761811,60.6127582 L159.30782,64.0820236 L160.514179,67.7315503 L161.360312,71.52826 L161.828848,75.436765 L161.905874,79.4196763 L161.581162,83.43794 L160.848365,87.4511985 L159.705173,91.4181745 L158.153431,95.2970732 L156.199228,99.0459989 L153.852929,102.623384 L151.129172,105.988424 L148.046826,109.101514 L144.628888,111.924688 L140.902357,114.422042 L136.898043,116.56016 L132.650347,118.30851 L128.196992,119.639832 L123.578713,120.530494 L118.838916,120.96082 L114.023286,120.91539 L109.179383,120.383298 L104.356191,119.35837 L99.6036494,117.839346 L94.9721673,115.830004 L90.5121117,113.339244 L86.2732918,110.381119 L82.3044334,106.974811 L78.6526531,103.14456 L75.3629356,98.9195314 L72.4776215,94.3336361 L70.0359092,89.4252937 L68.073378,84.2371456 L66.6215369,78.8157178 L65.7074039,73.2110345 L65.3531227,67.4761883 L65.5756192,61.6668672 L66.386304,55.8408451 L67.7908251,50.0574374 L69.7888726,44.3769288 L72.3740413,38.8599777 L75.5337518,33.5670019 L79.2492338,28.557553 L83.495572,23.8896846 L88.2418167,19.6193206 L93.4511589,15.7996314 L99.0811693,12.4804227 L105.084101,9.70754479 L111.407255,7.52232892 L117.993401,5.96105605 L124.781263,5.05446548 L131.706047,4.8273086 L138.700028,5.29795366 L145.69317,6.47804674 L152.613798,8.3722338 L159.389287,10.9779481 L165.946789,14.2852664 L172.213976,18.2768378 L178.119791,22.9278869 L183.59521,28.2062928 L188.573996,34.0727462 L192.993444,40.4809837 L196.79511,47.3780984 L199.925508,54.7049268 L202.336776,62.3965087 L203.9873,70.3826172 L204.842286,78.5883555 L204.874278,86.9348154 L204.063613,95.3397925 L202.398804,103.718552 L199.876849,111.984639 L196.503463,120.050724 L192.293223,127.829478 L187.269625,135.234469 L181.465056,142.181071 L174.920664,148.587368 L167.686146,154.375066 L159.819438,159.470375 L151.386313,163.804872 L142.45989,167.316331 L133.120055,169.949504 L123.452803,171.65685 L113.549498,172.399205 L103.506059,172.146377 L93.4220885,170.87767 L83.3999316,168.582312 L73.5436948,165.259803 L63.9582179,160.920156 L54.7480166,155.584042 L46.0162036,149.282827 L37.8633984,142.058503 L30.3866375,133.963497 L23.6782962,125.060387 L17.8250324,115.421493 L12.9067652,105.128361 L8.99569793,94.2711471 L6.15539827,82.9478891 L4.43994512,71.2636893 L0.482864632,71.8480813 L2.23737317,83.7283458 L5.17516229,95.4388545 L9.22189257,106.671652 L14.3126408,117.324947 L20.3734803,127.304986 L27.3224179,136.526813 L35.0703917,144.914925 L43.5223167,152.403815 L52.5781676,158.93841 L62.1340871,164.47439 L72.0835084,168.97839 L82.3182793,172.428097 L92.7297778,174.812227 L103.210008,176.130394 L113.652663,176.392873 L123.954155,175.620268 L134.014583,173.84307 L143.738657,171.101141 L153.036543,167.44311 L161.824641,162.925689 L170.026287,157.612931 L177.572361,151.575433 L184.401814,144.88948 L190.462102,137.636162 L195.709519,129.900456 L200.109445,121.770295 L203.636487,113.335622 L206.274533,104.687448 L208.016708,95.9169207 L208.86524,87.1144095 L208.831239,78.368621 L207.934388,69.7657496 L206.202561,61.3886715 L203.671365,53.31619 L200.383611,45.6223378 L196.388733,38.3757423 L191.74215,31.6390589 L186.504573,25.4684762 L180.741294,19.9132963 L174.521426,15.0155941 L167.91713,10.8099547 L161.002832,7.32329261 L153.854425,4.57475072 L146.548484,2.57567921 L139.161481,1.32969286 L131.76903,0.832804077 L124.445147,1.073629 L117.261543,2.03366281 L110.286968,3.68762014 L103.586579,6.00383561 L97.2213749,8.94471934 L91.2476744,12.4672615 L85.7166586,16.5235801 L80.6739707,21.061505 L76.159382,26.0251927 L72.2065222,31.3557632 L68.8426785,36.9919547 L66.0886608,42.8707862 L63.9587356,48.928224 L62.4606257,55.0998437 L61.5955762,61.3214816 L61.3584823,67.5298694 L61.7380793,73.6632461 L62.7171882,79.6619414 L64.2730162,85.4689261 L66.3775062,91.0303235 L68.9977309,96.2958784 L72.0963273,101.21938 L75.631966,105.759035 L79.5598492,109.87779 L83.8322334,113.543597 L88.3989695,116.729622 L93.208055,119.414407 L98.2061934,121.581959 L103.339354,123.221798 L108.553326,124.328939 L113.794263,124.903821 L119.009215,124.95219 L124.146635,124.484922 L129.15686,123.517807 L133.992571,122.071284 L138.609212,120.170137 L142.965373,117.843152 L147.023139,115.122749 L150.748389,112.044572 L154.111055,108.647072 L157.085336,104.971059 L159.649863,101.059243 L161.787817,96.9557705 L163.486995,92.7057522 L164.739837,88.3547914 L165.543402,83.9485197 L165.899291,79.5321414 L165.813543,75.1499917 L165.296471,70.8451137 L164.362472,66.6588567 L163.029798,62.6305007 L161.320283,58.7969092 L159.259058,55.1922133 L156.874224,51.8475305 L154.196511,48.7907185 L151.258913,46.046168 L148.096314,43.6346333 L144.745097,41.5731036 L141.242751,39.8747138 L137.627474,38.5486962 L133.937775,37.6003718 L130.212088,37.0311807 L126.488386,36.8387505 L122.803814,37.0170012 L119.194339,37.5562848 L115.694414,38.4435574 L112.336668,39.662581 L109.151619,41.194154 L106.167416,43.0163645 L103.409609,45.1048669 L100.900948,47.4331755 L98.6612183,49.9729739 L96.7071037,52.6944357 L95.0520882,55.5665538 L93.7063885,58.5574737 L92.6769216,61.6348291 L91.9673055,64.7660747 L91.5778931,67.9188139 L91.5058377,71.0611186 L91.7451888,74.1618369 L92.2870165,77.1908867 L93.1195638,80.1195329 L94.2284225,82.920645 L95.5967329,85.5689333 L97.205403,88.0411617 L99.0333454,90.3163361 L101.057729,92.3758661 L103.254243,94.2036997 L105.597369,95.7864293 L108.060663,97.1133705 L110.617032,98.1766106 L113.239026,98.9710298 L115.899108,99.4942935 L118.56994,99.7468175 L121.224643,99.7317063 L123.837059,99.4546665 L126.381995,98.9238952 L128.835452,98.149947 L131.174843,97.1455801 L133.379182,95.9255833 L135.429265,94.5065868 L137.307822,92.9068589 L138.999648,91.1460902 L140.491711,89.2451683 L141.773238,87.2259455 L142.835776,85.1110016 L143.673225,82.9234043 L144.281853,80.6864702 L144.660281,78.4235273 L144.809454,76.1576837 L144.732578,73.9116019 L144.435042,71.707283 L143.924325,69.5658618 L143.209873,67.5074142 L142.302967,65.55078 L141.216572,63.7134007 L139.965178,62.0111752 L138.56462,60.4583328 L137.031895,59.0673267 L135.38497,57.8487464 L133.642584,56.81125 L131.824044,55.9615184 L129.949025,55.3042285 L128.037364,54.8420478 L126.108863,54.5756487 L124.18309,54.5037424 L122.279192,54.623131 L120.415711,54.9287784 L118.610415,55.4138969 L116.880136,56.0700506 L115.24062,56.8872715 L113.706396,57.8541901 L112.290654,58.9581759 L111.005143,60.1854882 L109.860079,61.5214346 L108.864082,62.9505358 L108.024114,64.4566954 L107.345449,66.0233709 L106.831653,67.6337478 L106.48458,69.2709107 L106.304393,70.9180138 L106.289589,72.5584463 L106.437055,74.1759923 L106.742125,75.7549838 L107.198658,77.2804451 L107.79913,78.7382276 L108.534735,80.1151338 L109.395495,81.3990289 L110.370388,82.5789405 L111.447471,83.6451445 L112.614021,84.5892362 L113.856675,85.4041887 L115.161573,86.0843946 L116.514509,86.6256943 L117.901074,87.0253887 L119.306808,87.2822375 L120.717338,87.3964428 L122.118523,87.3696196 L123.496587,87.2047517 L124.838252,86.9061362 L126.130855,86.4793151 L127.362465,85.9309966 L128.521984,85.2689661 L129.599244,84.5019886 L130.585088,83.6397026 L131.471441,82.6925088 L132.251369,81.6714517 L132.919127,80.5880985 L133.470192,79.4544148 L133.901285,78.2826383 L134.210378,77.0851527 L134.396694,75.8743627 L134.460687,74.6625705 L134.404017,73.4618566 L134.229509,72.2839643 L133.941103,71.14019 L133.543797,70.0412798 L133.043572,68.9973342 L132.447322,68.0177198 L131.762761,67.1109908 L130.998338,66.2848197 L130.163135,65.5459377 L129.266767,64.9000862 L128.31928,64.351978 L127.331039,63.9052701 L126.312624,63.5625472 L125.274717,63.325316 L124.228,63.1940099 L123.183045,63.1680049 L122.150215,63.2456449 L121.139561,63.424277 L120.160735,63.7002962 L119.222896,64.0691979 L118.334634,64.525639 L117.503889,65.0635061 L116.737891,65.6759892 L116.043098,66.355662 L115.425147,67.0945659 L114.888811,67.8842985 L114.437974,68.716104 L114.075601,69.5809662 L113.803728,70.4697018 L113.623462,71.3730543 L113.53498,72.281786 L113.537551,73.1867692 L113.629553,74.0790741 L113.808508,74.9500529 L114.071122,75.7914209 L114.413329,76.5953306 L114.830348,77.3544425 L115.316741,78.0619877 L115.866475,78.7118248 L116.472999,79.2984896 L117.129311,79.8172372 L117.828037,80.2640759 L118.56151,80.6357938 L119.321851,80.9299771 L120.10105,81.1450197 L120.891048,81.2801254 L121.683813,81.3353021 L122.471423,81.3113476 L123.246143,81.2098288 L124.000492,81.0330526 L124.727319,80.7840315 L125.419862,80.4664415 L126.071812,80.0845747 L126.677367,79.6432874 L127.231279,79.1479424 L127.728896,78.6043477 L128.166201,78.0186927 L128.539838,77.3974803 L128.847133,76.7474582 L129.086116,76.0755484 L129.255518,75.3887763 L129.354782,74.6942002 L129.384052,73.9988411 L129.344159,73.3096144 L129.236606,72.6332638 L129.06354,71.9762978 L128.827717,71.3449293 L128.532474,70.7450197 L128.181678,70.1820268 L127.779685,69.6609574 L127.331285,69.1863257 L126.841655,68.7621166 L126.316296,68.3917547 L125.760973,68.0780799 L125.181662,67.8233285 L124.58448,67.6291206 L123.975626,67.4964538 L123.161639,67.4160097 L122.140962,67.4683799 L122.546236,71.4477961 L122.750725,69.4166252 Z" id="Spiral-1" fill="#979797" sketch:type="MSShapeGroup"></path>
    </g>
</svg>